<svg xmlns="http://www.w3.org/2000/svg" xmlns:xlink="http://www.w3.org/1999/xlink" width="500" zoomAndPan="magnify" viewBox="0 0 375 187.499995" height="250" preserveAspectRatio="xMidYMid meet" version="1.0"><defs><g/><clipPath id="135f390c0a"><path d="M 26 0.429688 L 372.902344 0.429688 L 372.902344 94 L 26 94 Z M 26 0.429688 " clip-rule="nonzero"/></clipPath><clipPath id="f7025ae827"><rect x="0" width="347" y="0" height="94"/></clipPath><clipPath id="fe91cb837d"><path d="M 0.214844 56 L 33 56 L 33 129 L 0.214844 129 Z M 0.214844 56 " clip-rule="nonzero"/></clipPath><clipPath id="b74946a712"><rect x="0" width="373" y="0" height="149"/></clipPath></defs><g transform="matrix(1, 0, 0, 1, 1, 18)"><g clip-path="url(#b74946a712)"><g clip-path="url(#135f390c0a)"><g transform="matrix(1, 0, 0, 1, 26, -0.000000000000003553)"><g clip-path="url(#f7025ae827)"><g fill="#f6f4f0" fill-opacity="1"><g transform="translate(1.037206, 72.977773)"><g><path d="M 31.359375 -2.375 C 28.015625 -0.789062 24.644531 0 21.25 0 C 19.300781 0 17.15625 -0.269531 14.8125 -0.8125 C 12.476562 -1.363281 10.203125 -2.0625 7.984375 -2.90625 C 5.765625 -3.757812 3.800781 -4.675781 2.09375 -5.65625 C 0.820312 -6.382812 0.15625 -7.128906 0.09375 -7.890625 C 0.03125 -8.648438 0.300781 -9.4375 0.90625 -10.25 C 1.519531 -11.070312 2.097656 -11.972656 2.640625 -12.953125 C 2.828125 -13.253906 3.023438 -13.539062 3.234375 -13.8125 C 3.453125 -14.082031 3.679688 -14.3125 3.921875 -14.5 C 4.585938 -14.976562 5.285156 -15.125 6.015625 -14.9375 C 6.742188 -14.757812 7.457031 -14.457031 8.15625 -14.03125 C 8.851562 -13.613281 9.476562 -13.253906 10.03125 -12.953125 C 11.914062 -11.910156 13.984375 -11.144531 16.234375 -10.65625 C 18.484375 -10.175781 20.671875 -10 22.796875 -10.125 C 24.367188 -10.238281 25.820312 -10.582031 27.15625 -11.15625 C 28.5 -11.738281 29.289062 -12.546875 29.53125 -13.578125 C 29.78125 -14.617188 29.054688 -15.835938 27.359375 -17.234375 C 25.109375 -18.992188 22.71875 -20.453125 20.1875 -21.609375 C 17.664062 -22.765625 15.070312 -23.765625 12.40625 -24.609375 C 9.90625 -25.398438 7.894531 -26.585938 6.375 -28.171875 C 4.863281 -29.753906 3.785156 -31.515625 3.140625 -33.453125 C 2.503906 -35.398438 2.304688 -37.285156 2.546875 -39.109375 C 2.859375 -41.054688 3.617188 -42.910156 4.828125 -44.671875 C 6.046875 -46.429688 7.566406 -47.976562 9.390625 -49.3125 C 11.210938 -50.65625 13.1875 -51.570312 15.3125 -52.0625 C 16.53125 -52.363281 17.71875 -52.585938 18.875 -52.734375 C 20.03125 -52.890625 21.1875 -52.96875 22.34375 -52.96875 C 24.53125 -52.96875 26.6875 -52.707031 28.8125 -52.1875 C 30.9375 -51.675781 32.972656 -50.960938 34.921875 -50.046875 C 36.679688 -49.265625 37.941406 -48.519531 38.703125 -47.8125 C 39.460938 -47.113281 39.734375 -46.28125 39.515625 -45.3125 C 39.304688 -44.34375 38.59375 -42.972656 37.375 -41.203125 C 36.46875 -39.867188 35.4375 -39.125 34.28125 -38.96875 C 33.125 -38.820312 31.875 -38.988281 30.53125 -39.46875 C 29.195312 -39.957031 27.847656 -40.550781 26.484375 -41.25 C 25.117188 -41.945312 23.78125 -42.539062 22.46875 -43.03125 C 21.164062 -43.519531 19.96875 -43.671875 18.875 -43.484375 C 17.78125 -43.304688 16.804688 -42.546875 15.953125 -41.203125 C 15.160156 -39.867188 14.929688 -38.695312 15.265625 -37.6875 C 15.597656 -36.6875 16.28125 -35.820312 17.3125 -35.09375 C 18.351562 -34.363281 19.554688 -33.753906 20.921875 -33.265625 C 22.285156 -32.785156 23.601562 -32.363281 24.875 -32 C 26.15625 -31.632812 27.191406 -31.300781 27.984375 -31 C 30.296875 -30.144531 32.546875 -29.109375 34.734375 -27.890625 C 36.921875 -26.679688 38.6875 -24.984375 40.03125 -22.796875 C 41.851562 -19.753906 42.503906 -16.910156 41.984375 -14.265625 C 41.460938 -11.617188 40.226562 -9.273438 38.28125 -7.234375 C 36.34375 -5.203125 34.035156 -3.582031 31.359375 -2.375 Z M 31.359375 -2.375 "/></g></g></g><g fill="#f6f4f0" fill-opacity="1"><g transform="translate(43.330558, 72.977773)"><g><path d="M 44.578125 -2.28125 C 44.097656 -1.675781 43.335938 -1.34375 42.296875 -1.28125 C 41.328125 -1.28125 40.382812 -1.476562 39.46875 -1.875 C 38.5625 -2.269531 37.664062 -2.660156 36.78125 -3.046875 C 35.90625 -3.441406 34.953125 -3.640625 33.921875 -3.640625 C 33.242188 -3.640625 32.570312 -3.59375 31.90625 -3.5 C 31.238281 -3.414062 30.632812 -3.3125 30.09375 -3.1875 L 29.625 -3.09375 C 27.863281 -2.789062 26.144531 -2.394531 24.46875 -1.90625 C 22.800781 -1.425781 21.238281 -0.941406 19.78125 -0.453125 C 19.113281 -0.273438 18.429688 -0.125 17.734375 0 C 17.035156 0.125 16.320312 0.1875 15.59375 0.1875 C 11.15625 0.1875 7.414062 -1.578125 4.375 -5.109375 C 0.90625 -9.054688 -0.457031 -13.914062 0.28125 -19.6875 C 0.582031 -22 1.382812 -24.066406 2.6875 -25.890625 C 4 -27.710938 5.65625 -29.113281 7.65625 -30.09375 C 8.6875 -30.570312 9.78125 -30.914062 10.9375 -31.125 C 12.09375 -31.34375 13.28125 -31.546875 14.5 -31.734375 C 14.800781 -31.734375 15.070312 -31.742188 15.3125 -31.765625 C 15.5625 -31.796875 15.804688 -31.84375 16.046875 -31.90625 L 27.984375 -33.546875 C 29.566406 -33.796875 30.554688 -34.269531 30.953125 -34.96875 C 31.347656 -35.664062 31.578125 -36.226562 31.640625 -36.65625 C 31.753906 -37.6875 31.429688 -38.625 30.671875 -39.46875 C 29.921875 -40.320312 29.023438 -40.898438 27.984375 -41.203125 C 26.097656 -41.929688 24.15625 -42.296875 22.15625 -42.296875 L 21.875 -42.296875 C 20 -42.242188 18.207031 -41.972656 16.5 -41.484375 C 14.800781 -40.992188 13.160156 -40.414062 11.578125 -39.75 C 11.085938 -39.507812 10.507812 -39.390625 9.84375 -39.390625 C 8.507812 -39.390625 7.1875 -39.828125 5.875 -40.703125 C 4.570312 -41.585938 3.644531 -42.640625 3.09375 -43.859375 C 2.851562 -44.335938 2.75 -44.742188 2.78125 -45.078125 C 2.8125 -45.421875 2.859375 -45.679688 2.921875 -45.859375 C 3.285156 -46.648438 4 -47.363281 5.0625 -48 C 6.125 -48.632812 7.25 -49.179688 8.4375 -49.640625 C 9.625 -50.097656 10.609375 -50.445312 11.390625 -50.6875 C 15.765625 -52.082031 20.171875 -52.78125 24.609375 -52.78125 C 25.035156 -52.78125 25.460938 -52.78125 25.890625 -52.78125 C 26.316406 -52.78125 26.742188 -52.753906 27.171875 -52.703125 C 29.296875 -52.578125 31.648438 -52.164062 34.234375 -51.46875 C 36.816406 -50.769531 39.019531 -49.445312 40.84375 -47.5 C 42.96875 -45.1875 44.242188 -42.878906 44.671875 -40.578125 C 45.160156 -37.960938 45.328125 -35.238281 45.171875 -32.40625 C 45.023438 -29.582031 44.976562 -26.832031 45.03125 -24.15625 C 45.03125 -21.425781 45.03125 -18.675781 45.03125 -15.90625 C 45.03125 -13.144531 45.0625 -10.425781 45.125 -7.75 C 45.125 -6.832031 45.171875 -5.859375 45.265625 -4.828125 C 45.359375 -3.796875 45.128906 -2.945312 44.578125 -2.28125 Z M 31.359375 -17.953125 C 31.847656 -18.929688 32 -19.753906 31.8125 -20.421875 C 31.632812 -21.085938 31.453125 -21.546875 31.265625 -21.796875 C 31.023438 -22.160156 30.644531 -22.507812 30.125 -22.84375 C 29.613281 -23.175781 28.898438 -23.375 27.984375 -23.4375 L 27.265625 -23.515625 C 26.710938 -23.578125 26.144531 -23.609375 25.5625 -23.609375 C 24.988281 -23.609375 24.367188 -23.609375 23.703125 -23.609375 C 22.671875 -23.609375 21.425781 -23.5 19.96875 -23.28125 C 18.507812 -23.070312 17.109375 -22.515625 15.765625 -21.609375 C 14.859375 -20.878906 14.285156 -20.117188 14.046875 -19.328125 C 13.796875 -18.660156 13.765625 -17.8125 13.953125 -16.78125 C 14.378906 -14.894531 15.195312 -13.429688 16.40625 -12.390625 C 17.625 -11.359375 19.082031 -10.84375 20.78125 -10.84375 C 22.914062 -10.84375 25.015625 -11.539062 27.078125 -12.9375 C 29.140625 -14.34375 30.566406 -16.015625 31.359375 -17.953125 Z M 31.359375 -17.953125 "/></g></g></g><g fill="#f6f4f0" fill-opacity="1"><g transform="translate(88.814225, 72.977773)"><g><path d="M 46.59375 -0.453125 C 45.007812 -0.515625 43.410156 -0.53125 41.796875 -0.5 C 40.191406 -0.46875 38.566406 -0.453125 36.921875 -0.453125 C 36.554688 -0.453125 36.265625 -1.085938 36.046875 -2.359375 C 35.835938 -3.640625 35.703125 -5.3125 35.640625 -7.375 C 35.585938 -9.445312 35.5625 -11.679688 35.5625 -14.078125 C 35.5625 -16.484375 35.585938 -18.8125 35.640625 -21.0625 C 35.703125 -23.3125 35.75 -25.253906 35.78125 -26.890625 C 35.8125 -28.535156 35.828125 -29.601562 35.828125 -30.09375 C 35.765625 -33.488281 35.234375 -36.066406 34.234375 -37.828125 C 33.234375 -39.597656 31.988281 -40.816406 30.5 -41.484375 C 29.007812 -42.148438 27.535156 -42.484375 26.078125 -42.484375 L 25.890625 -42.484375 C 22.429688 -42.484375 19.617188 -41.3125 17.453125 -38.96875 C 15.296875 -36.632812 14.160156 -33.582031 14.046875 -29.8125 C 13.984375 -27.382812 13.953125 -24.953125 13.953125 -22.515625 C 13.953125 -20.085938 13.953125 -17.65625 13.953125 -15.21875 C 14.015625 -13.34375 14.179688 -11.265625 14.453125 -8.984375 C 14.722656 -6.703125 14.675781 -4.617188 14.3125 -2.734375 C 14.070312 -1.335938 13.507812 -0.59375 12.625 -0.5 C 11.75 -0.40625 10.765625 -0.332031 9.671875 -0.28125 C 8.929688 -0.21875 7.96875 -0.140625 6.78125 -0.046875 C 5.601562 0.046875 4.453125 0.00390625 3.328125 -0.171875 C 2.203125 -0.359375 1.367188 -0.816406 0.828125 -1.546875 C 0.148438 -2.523438 -0.0976562 -3.695312 0.078125 -5.0625 C 0.265625 -6.425781 0.390625 -7.625 0.453125 -8.65625 C 0.703125 -12 0.882812 -15.40625 1 -18.875 C 1.1875 -25.4375 1.003906 -31.96875 0.453125 -38.46875 C 0.335938 -39.75 0.25 -41.238281 0.1875 -42.9375 C 0.125 -44.644531 0.257812 -46.269531 0.59375 -47.8125 C 0.925781 -49.363281 1.59375 -50.578125 2.59375 -51.453125 C 3.601562 -52.335938 5.109375 -52.597656 7.109375 -52.234375 C 8.753906 -51.929688 10.363281 -51.550781 11.9375 -51.09375 C 13.519531 -50.644531 15.132812 -50.269531 16.78125 -49.96875 C 16.894531 -49.96875 17.023438 -49.96875 17.171875 -49.96875 C 17.328125 -49.96875 17.4375 -49.96875 17.5 -49.96875 C 18.65625 -49.96875 19.8125 -50.191406 20.96875 -50.640625 C 22.125 -51.097656 23.304688 -51.566406 24.515625 -52.046875 C 25.734375 -52.535156 26.953125 -52.8125 28.171875 -52.875 C 31.691406 -53.175781 35.035156 -52.570312 38.203125 -51.0625 C 40.929688 -49.78125 43.039062 -48.101562 44.53125 -46.03125 C 46.019531 -43.96875 47.097656 -41.691406 47.765625 -39.203125 C 48.441406 -36.710938 48.867188 -34.128906 49.046875 -31.453125 C 49.234375 -28.773438 49.382812 -26.128906 49.5 -23.515625 C 49.5 -22.972656 49.5625 -21.847656 49.6875 -20.140625 C 49.8125 -18.441406 49.890625 -16.484375 49.921875 -14.265625 C 49.953125 -12.046875 49.90625 -9.890625 49.78125 -7.796875 C 49.65625 -5.703125 49.363281 -3.953125 48.90625 -2.546875 C 48.457031 -1.148438 47.773438 -0.453125 46.859375 -0.453125 C 46.796875 -0.453125 46.75 -0.453125 46.71875 -0.453125 C 46.695312 -0.453125 46.65625 -0.453125 46.59375 -0.453125 Z M 46.59375 -0.453125 "/></g></g></g><g fill="#f6f4f0" fill-opacity="1"><g transform="translate(138.946665, 72.977773)"><g><path d="M 14.765625 -2.375 C 11.421875 -4.3125 9.21875 -6.890625 8.15625 -10.109375 C 7.09375 -13.335938 6.59375 -16.773438 6.65625 -20.421875 C 6.71875 -22.546875 6.734375 -24.671875 6.703125 -26.796875 C 6.671875 -28.929688 6.65625 -31.03125 6.65625 -33.09375 C 6.65625 -34.550781 6.671875 -36.023438 6.703125 -37.515625 C 6.734375 -39.003906 6.171875 -40.328125 5.015625 -41.484375 C 4.410156 -42.148438 3.648438 -42.585938 2.734375 -42.796875 C 1.828125 -43.015625 1.160156 -43.578125 0.734375 -44.484375 C 0.546875 -44.910156 0.421875 -45.335938 0.359375 -45.765625 C 0.304688 -46.191406 0.25 -46.617188 0.1875 -47.046875 C 0.125 -48.015625 0.125 -48.96875 0.1875 -49.90625 C 0.25 -50.851562 0.644531 -51.691406 1.375 -52.421875 C 1.976562 -52.972656 2.6875 -53.320312 3.5 -53.46875 C 4.320312 -53.625 5.007812 -54.035156 5.5625 -54.703125 C 6.59375 -55.921875 7.109375 -57.257812 7.109375 -58.71875 C 7.109375 -60.175781 7.046875 -61.570312 6.921875 -62.90625 C 6.804688 -63.9375 6.734375 -64.769531 6.703125 -65.40625 C 6.671875 -66.050781 7.140625 -66.644531 8.109375 -67.1875 C 8.835938 -67.613281 9.765625 -67.828125 10.890625 -67.828125 C 12.015625 -67.828125 13.140625 -67.765625 14.265625 -67.640625 C 15.390625 -67.523438 16.347656 -67.40625 17.140625 -67.28125 C 18.722656 -67.101562 19.570312 -66.507812 19.6875 -65.5 C 19.8125 -64.5 19.8125 -63.363281 19.6875 -62.09375 C 19.445312 -58.5625 20.085938 -55.945312 21.609375 -54.25 C 22.335938 -53.457031 23.15625 -52.984375 24.0625 -52.828125 C 24.976562 -52.679688 25.90625 -52.632812 26.84375 -52.6875 C 27.789062 -52.75 28.6875 -52.75 29.53125 -52.6875 C 30.382812 -52.632812 31.117188 -52.300781 31.734375 -51.6875 C 32.398438 -51.019531 32.6875 -50.003906 32.59375 -48.640625 C 32.5 -47.273438 32.394531 -46.164062 32.28125 -45.3125 C 32.15625 -44.15625 31.648438 -43.332031 30.765625 -42.84375 C 29.890625 -42.363281 28.859375 -42 27.671875 -41.75 C 26.484375 -41.507812 25.328125 -41.222656 24.203125 -40.890625 C 23.078125 -40.554688 22.210938 -39.992188 21.609375 -39.203125 C 20.941406 -38.347656 20.378906 -36.898438 19.921875 -34.859375 C 19.460938 -32.828125 19.203125 -30.550781 19.140625 -28.03125 C 19.085938 -25.507812 19.253906 -23.09375 19.640625 -20.78125 C 20.035156 -18.476562 20.75 -16.566406 21.78125 -15.046875 C 22.820312 -13.523438 24.191406 -12.765625 25.890625 -12.765625 C 26.617188 -12.765625 27.394531 -12.914062 28.21875 -13.21875 C 29.039062 -13.519531 29.84375 -13.773438 30.625 -13.984375 C 31.414062 -14.203125 32.117188 -14.160156 32.734375 -13.859375 C 33.578125 -13.554688 34.300781 -12.75 34.90625 -11.4375 C 35.519531 -10.132812 36.007812 -9.117188 36.375 -8.390625 C 36.738281 -7.722656 36.984375 -7.050781 37.109375 -6.375 C 37.171875 -5.46875 36.804688 -4.753906 36.015625 -4.234375 C 35.222656 -3.722656 34.492188 -3.285156 33.828125 -2.921875 C 30.847656 -1.210938 27.6875 -0.25 24.34375 -0.03125 C 21 0.175781 17.804688 -0.601562 14.765625 -2.375 Z M 14.765625 -2.375 "/></g></g></g><g fill="#f6f4f0" fill-opacity="1"><g transform="translate(176.317792, 72.977773)"><g><path d="M 3.46875 -57.4375 C 2.125 -58.289062 1.148438 -59.488281 0.546875 -61.03125 C -0.0546875 -62.582031 -0.0859375 -64.269531 0.453125 -66.09375 C 1.484375 -69.6875 3.914062 -71.539062 7.75 -71.65625 L 7.9375 -71.65625 C 9.820312 -71.65625 11.398438 -71.15625 12.671875 -70.15625 C 13.953125 -69.15625 14.800781 -67.773438 15.21875 -66.015625 C 15.769531 -63.816406 15.554688 -61.804688 14.578125 -59.984375 C 13.609375 -58.160156 11.972656 -56.976562 9.671875 -56.4375 C 8.515625 -56.195312 7.398438 -56.164062 6.328125 -56.34375 C 5.265625 -56.53125 4.3125 -56.894531 3.46875 -57.4375 Z M 2.1875 -48.328125 C 3.039062 -48.867188 4.253906 -49.109375 5.828125 -49.046875 C 6.742188 -49.046875 7.75 -49.078125 8.84375 -49.140625 C 9.9375 -49.203125 10.953125 -49.09375 11.890625 -48.8125 C 12.835938 -48.539062 13.460938 -47.921875 13.765625 -46.953125 C 14.316406 -45.429688 14.5 -43.59375 14.3125 -41.4375 C 14.132812 -39.28125 14.046875 -37.410156 14.046875 -35.828125 C 14.097656 -32.117188 14.125 -28.441406 14.125 -24.796875 C 14.125 -21.148438 14.15625 -17.472656 14.21875 -13.765625 C 14.21875 -13.160156 14.289062 -12.140625 14.4375 -10.703125 C 14.59375 -9.273438 14.6875 -7.738281 14.71875 -6.09375 C 14.75 -4.457031 14.582031 -3.0625 14.21875 -1.90625 C 13.851562 -0.757812 13.125 -0.15625 12.03125 -0.09375 C 10.632812 -0.03125 9.175781 0.015625 7.65625 0.046875 C 6.132812 0.078125 4.675781 0 3.28125 -0.1875 C 2.3125 -0.300781 1.644531 -0.828125 1.28125 -1.765625 C 0.914062 -2.710938 0.71875 -3.851562 0.6875 -5.1875 C 0.65625 -6.53125 0.695312 -7.804688 0.8125 -9.015625 C 0.9375 -10.234375 1 -11.179688 1 -11.859375 C 0.9375 -14.347656 0.890625 -16.851562 0.859375 -19.375 C 0.835938 -21.894531 0.828125 -24.398438 0.828125 -26.890625 C 0.765625 -29.023438 0.734375 -31.15625 0.734375 -33.28125 C 0.734375 -35.40625 0.703125 -37.5 0.640625 -39.5625 C 0.640625 -41.332031 0.609375 -43.035156 0.546875 -44.671875 C 0.484375 -46.316406 1.03125 -47.535156 2.1875 -48.328125 Z M 2.1875 -48.328125 "/></g></g></g><g fill="#f6f4f0" fill-opacity="1"><g transform="translate(192.085848, 72.977773)"><g><path d="M 44.578125 -2.28125 C 44.097656 -1.675781 43.335938 -1.34375 42.296875 -1.28125 C 41.328125 -1.28125 40.382812 -1.476562 39.46875 -1.875 C 38.5625 -2.269531 37.664062 -2.660156 36.78125 -3.046875 C 35.90625 -3.441406 34.953125 -3.640625 33.921875 -3.640625 C 33.242188 -3.640625 32.570312 -3.59375 31.90625 -3.5 C 31.238281 -3.414062 30.632812 -3.3125 30.09375 -3.1875 L 29.625 -3.09375 C 27.863281 -2.789062 26.144531 -2.394531 24.46875 -1.90625 C 22.800781 -1.425781 21.238281 -0.941406 19.78125 -0.453125 C 19.113281 -0.273438 18.429688 -0.125 17.734375 0 C 17.035156 0.125 16.320312 0.1875 15.59375 0.1875 C 11.15625 0.1875 7.414062 -1.578125 4.375 -5.109375 C 0.90625 -9.054688 -0.457031 -13.914062 0.28125 -19.6875 C 0.582031 -22 1.382812 -24.066406 2.6875 -25.890625 C 4 -27.710938 5.65625 -29.113281 7.65625 -30.09375 C 8.6875 -30.570312 9.78125 -30.914062 10.9375 -31.125 C 12.09375 -31.34375 13.28125 -31.546875 14.5 -31.734375 C 14.800781 -31.734375 15.070312 -31.742188 15.3125 -31.765625 C 15.5625 -31.796875 15.804688 -31.84375 16.046875 -31.90625 L 27.984375 -33.546875 C 29.566406 -33.796875 30.554688 -34.269531 30.953125 -34.96875 C 31.347656 -35.664062 31.578125 -36.226562 31.640625 -36.65625 C 31.753906 -37.6875 31.429688 -38.625 30.671875 -39.46875 C 29.921875 -40.320312 29.023438 -40.898438 27.984375 -41.203125 C 26.097656 -41.929688 24.15625 -42.296875 22.15625 -42.296875 L 21.875 -42.296875 C 20 -42.242188 18.207031 -41.972656 16.5 -41.484375 C 14.800781 -40.992188 13.160156 -40.414062 11.578125 -39.75 C 11.085938 -39.507812 10.507812 -39.390625 9.84375 -39.390625 C 8.507812 -39.390625 7.1875 -39.828125 5.875 -40.703125 C 4.570312 -41.585938 3.644531 -42.640625 3.09375 -43.859375 C 2.851562 -44.335938 2.75 -44.742188 2.78125 -45.078125 C 2.8125 -45.421875 2.859375 -45.679688 2.921875 -45.859375 C 3.285156 -46.648438 4 -47.363281 5.0625 -48 C 6.125 -48.632812 7.25 -49.179688 8.4375 -49.640625 C 9.625 -50.097656 10.609375 -50.445312 11.390625 -50.6875 C 15.765625 -52.082031 20.171875 -52.78125 24.609375 -52.78125 C 25.035156 -52.78125 25.460938 -52.78125 25.890625 -52.78125 C 26.316406 -52.78125 26.742188 -52.753906 27.171875 -52.703125 C 29.296875 -52.578125 31.648438 -52.164062 34.234375 -51.46875 C 36.816406 -50.769531 39.019531 -49.445312 40.84375 -47.5 C 42.96875 -45.1875 44.242188 -42.878906 44.671875 -40.578125 C 45.160156 -37.960938 45.328125 -35.238281 45.171875 -32.40625 C 45.023438 -29.582031 44.976562 -26.832031 45.03125 -24.15625 C 45.03125 -21.425781 45.03125 -18.675781 45.03125 -15.90625 C 45.03125 -13.144531 45.0625 -10.425781 45.125 -7.75 C 45.125 -6.832031 45.171875 -5.859375 45.265625 -4.828125 C 45.359375 -3.796875 45.128906 -2.945312 44.578125 -2.28125 Z M 31.359375 -17.953125 C 31.847656 -18.929688 32 -19.753906 31.8125 -20.421875 C 31.632812 -21.085938 31.453125 -21.546875 31.265625 -21.796875 C 31.023438 -22.160156 30.644531 -22.507812 30.125 -22.84375 C 29.613281 -23.175781 28.898438 -23.375 27.984375 -23.4375 L 27.265625 -23.515625 C 26.710938 -23.578125 26.144531 -23.609375 25.5625 -23.609375 C 24.988281 -23.609375 24.367188 -23.609375 23.703125 -23.609375 C 22.671875 -23.609375 21.425781 -23.5 19.96875 -23.28125 C 18.507812 -23.070312 17.109375 -22.515625 15.765625 -21.609375 C 14.859375 -20.878906 14.285156 -20.117188 14.046875 -19.328125 C 13.796875 -18.660156 13.765625 -17.8125 13.953125 -16.78125 C 14.378906 -14.894531 15.195312 -13.429688 16.40625 -12.390625 C 17.625 -11.359375 19.082031 -10.84375 20.78125 -10.84375 C 22.914062 -10.84375 25.015625 -11.539062 27.078125 -12.9375 C 29.140625 -14.34375 30.566406 -16.015625 31.359375 -17.953125 Z M 31.359375 -17.953125 "/></g></g></g><g fill="#f6f4f0" fill-opacity="1"><g transform="translate(237.569515, 72.977773)"><g><path d="M 52.703125 -39.296875 C 52.703125 -35.160156 52.726562 -30.992188 52.78125 -26.796875 C 52.84375 -22.609375 52.816406 -18.445312 52.703125 -14.3125 C 52.640625 -12 52.609375 -9.597656 52.609375 -7.109375 C 52.609375 -4.617188 52.425781 -2.160156 52.0625 0.265625 C 51.695312 2.703125 50.9375 4.984375 49.78125 7.109375 C 48.257812 9.910156 46.253906 12.234375 43.765625 14.078125 C 41.273438 15.929688 38.523438 17.316406 35.515625 18.234375 C 32.503906 19.148438 29.445312 19.609375 26.34375 19.609375 C 26.101562 19.609375 25.859375 19.609375 25.609375 19.609375 C 25.367188 19.609375 25.128906 19.609375 24.890625 19.609375 C 22.878906 19.484375 20.882812 19.3125 18.90625 19.09375 C 16.9375 18.882812 14.976562 18.476562 13.03125 17.875 C 12.25 17.625 11.304688 17.300781 10.203125 16.90625 C 9.109375 16.507812 8.078125 16.035156 7.109375 15.484375 C 6.140625 14.941406 5.457031 14.257812 5.0625 13.4375 C 4.664062 12.625 4.738281 11.640625 5.28125 10.484375 C 5.707031 9.628906 6.132812 8.757812 6.5625 7.875 C 6.988281 7 7.414062 6.132812 7.84375 5.28125 C 8.320312 4.375 8.957031 3.90625 9.75 3.875 C 10.539062 3.84375 11.421875 4.054688 12.390625 4.515625 C 13.367188 4.972656 14.3125 5.472656 15.21875 6.015625 C 16.132812 6.566406 16.894531 6.929688 17.5 7.109375 C 18.78125 7.535156 20.101562 7.867188 21.46875 8.109375 C 22.832031 8.359375 24.1875 8.484375 25.53125 8.484375 C 28.875 8.484375 31.851562 7.613281 34.46875 5.875 C 37.082031 4.144531 38.960938 1.703125 40.109375 -1.453125 C 40.234375 -1.765625 40.328125 -2.054688 40.390625 -2.328125 C 40.453125 -2.597656 40.453125 -2.851562 40.390625 -3.09375 C 40.328125 -4.132812 39.929688 -4.742188 39.203125 -4.921875 C 38.472656 -5.109375 37.632812 -5.078125 36.6875 -4.828125 C 35.75 -4.585938 34.835938 -4.269531 33.953125 -3.875 C 33.078125 -3.476562 32.394531 -3.21875 31.90625 -3.09375 C 30.507812 -2.675781 29.082031 -2.328125 27.625 -2.046875 C 26.164062 -1.773438 24.707031 -1.640625 23.25 -1.640625 C 19.414062 -1.640625 16.007812 -2.613281 13.03125 -4.5625 C 10.601562 -6.132812 8.445312 -7.925781 6.5625 -9.9375 C 4.675781 -11.945312 3.3125 -13.890625 2.46875 -15.765625 C 0.09375 -21.296875 -0.578125 -26.796875 0.453125 -32.265625 C 1.484375 -37.742188 4.128906 -42.519531 8.390625 -46.59375 C 12.640625 -50.71875 17.53125 -52.78125 23.0625 -52.78125 C 27.257812 -52.78125 31.425781 -51.628906 35.5625 -49.328125 C 35.863281 -49.078125 36.257812 -48.953125 36.75 -48.953125 C 37.476562 -48.953125 38.082031 -49.257812 38.5625 -49.875 C 38.863281 -50.238281 39.609375 -50.617188 40.796875 -51.015625 C 41.984375 -51.410156 43.378906 -51.757812 44.984375 -52.0625 C 46.597656 -52.363281 48.132812 -52.515625 49.59375 -52.515625 C 50.507812 -52.515625 51.148438 -52.453125 51.515625 -52.328125 C 51.878906 -52.210938 52.179688 -51.726562 52.421875 -50.875 C 52.722656 -49.90625 52.8125 -48.765625 52.6875 -47.453125 C 52.570312 -46.148438 52.546875 -44.976562 52.609375 -43.9375 C 52.609375 -43.15625 52.609375 -42.382812 52.609375 -41.625 C 52.609375 -40.863281 52.640625 -40.085938 52.703125 -39.296875 Z M 36.5625 -17.328125 C 39.050781 -20.304688 40.296875 -23.800781 40.296875 -27.8125 C 40.296875 -30.476562 39.703125 -32.875 38.515625 -35 C 37.335938 -37.132812 35.757812 -38.804688 33.78125 -40.015625 C 31.800781 -41.234375 29.566406 -41.84375 27.078125 -41.84375 C 25.378906 -41.78125 23.738281 -41.414062 22.15625 -40.75 C 20.570312 -40.082031 19.171875 -39.113281 17.953125 -37.84375 C 15.097656 -34.914062 13.734375 -31.296875 13.859375 -26.984375 C 13.921875 -24.492188 14.585938 -22.15625 15.859375 -19.96875 C 17.140625 -17.78125 18.765625 -16.015625 20.734375 -14.671875 C 22.710938 -13.335938 24.828125 -12.671875 27.078125 -12.671875 C 27.078125 -12.671875 27.09375 -12.671875 27.125 -12.671875 C 27.15625 -12.671875 27.171875 -12.671875 27.171875 -12.671875 C 30.816406 -12.671875 33.945312 -14.222656 36.5625 -17.328125 Z M 36.5625 -17.328125 "/></g></g></g><g fill="#f6f4f0" fill-opacity="1"><g transform="translate(290.618833, 72.977773)"><g><path d="M 0.09375 -26.4375 C 0.03125 -29.84375 0.695312 -33.234375 2.09375 -36.609375 C 3.488281 -39.984375 5.4375 -42.945312 7.9375 -45.5 C 10.300781 -47.925781 13.003906 -49.773438 16.046875 -51.046875 C 19.085938 -52.328125 22.21875 -52.96875 25.4375 -52.96875 C 25.738281 -52.96875 26.054688 -52.96875 26.390625 -52.96875 C 26.722656 -52.96875 27.046875 -52.96875 27.359375 -52.96875 C 27.359375 -52.96875 27.367188 -52.96875 27.390625 -52.96875 C 27.421875 -52.96875 27.4375 -52.96875 27.4375 -52.96875 C 32.726562 -52.96875 37.394531 -51.875 41.4375 -49.6875 C 45.476562 -47.5 48.648438 -44.457031 50.953125 -40.5625 C 53.265625 -36.675781 54.421875 -32.179688 54.421875 -27.078125 C 54.421875 -19.117188 51.929688 -12.644531 46.953125 -7.65625 C 44.523438 -5.226562 41.625 -3.359375 38.25 -2.046875 C 34.875 -0.742188 31.210938 -0.09375 27.265625 -0.09375 C 23.492188 -0.09375 19.984375 -0.773438 16.734375 -2.140625 C 13.484375 -3.503906 10.625 -5.382812 8.15625 -7.78125 C 5.695312 -10.1875 3.753906 -12.984375 2.328125 -16.171875 C 0.898438 -19.367188 0.15625 -22.789062 0.09375 -26.4375 Z M 26.984375 -42.125 C 24.859375 -42.125 22.789062 -41.4375 20.78125 -40.0625 C 18.78125 -38.695312 17.125 -36.9375 15.8125 -34.78125 C 14.507812 -32.625 13.828125 -30.359375 13.765625 -27.984375 C 13.703125 -25.367188 14.125 -22.847656 15.03125 -20.421875 C 15.945312 -17.992188 17.347656 -15.957031 19.234375 -14.3125 C 21.117188 -12.675781 23.457031 -11.703125 26.25 -11.390625 C 29.351562 -11.085938 31.96875 -11.570312 34.09375 -12.84375 C 36.226562 -14.125 37.867188 -15.875 39.015625 -18.09375 C 40.171875 -20.3125 40.8125 -22.742188 40.9375 -25.390625 C 41.0625 -28.035156 40.664062 -30.570312 39.75 -33 C 38.84375 -35.4375 37.382812 -37.488281 35.375 -39.15625 C 33.363281 -40.832031 30.8125 -41.820312 27.71875 -42.125 C 27.59375 -42.125 27.46875 -42.125 27.34375 -42.125 C 27.226562 -42.125 27.109375 -42.125 26.984375 -42.125 Z M 26.984375 -42.125 "/></g></g></g></g></g></g><g clip-path="url(#fe91cb837d)"><g fill="#f6f4f0" fill-opacity="1"><g transform="translate(0.510088, 128.433756)"><g><path d="M 29.71875 -49.859375 C 30.8125 -49.859375 31.507812 -49.398438 31.8125 -48.484375 C 32.113281 -47.578125 32.234375 -46.546875 32.171875 -45.390625 C 32.117188 -44.234375 32.03125 -43.320312 31.90625 -42.65625 C 31.78125 -41.445312 31.273438 -40.660156 30.390625 -40.296875 C 29.515625 -39.929688 28.515625 -39.789062 27.390625 -39.875 C 26.265625 -39.96875 25.25 -40.046875 24.34375 -40.109375 C 22.207031 -40.347656 20.773438 -40.132812 20.046875 -39.46875 C 19.316406 -38.800781 18.953125 -37.796875 18.953125 -36.453125 C 18.953125 -35.117188 18.953125 -33.601562 18.953125 -31.90625 C 19.015625 -30.382812 19.046875 -28.878906 19.046875 -27.390625 C 19.046875 -25.898438 19.046875 -24.394531 19.046875 -22.875 C 19.109375 -19.414062 19.15625 -15.953125 19.1875 -12.484375 C 19.21875 -9.023438 19.265625 -5.59375 19.328125 -2.1875 C 19.390625 -1.09375 19.023438 -0.421875 18.234375 -0.171875 C 17.441406 0.0664062 16.539062 0.125 15.53125 0 C 14.53125 -0.125 13.664062 -0.1875 12.9375 -0.1875 C 12.394531 -0.1875 11.648438 -0.109375 10.703125 0.046875 C 9.765625 0.203125 8.882812 0.21875 8.0625 0.09375 C 7.25 -0.03125 6.6875 -0.425781 6.375 -1.09375 C 6.257812 -1.394531 6.1875 -1.710938 6.15625 -2.046875 C 6.125 -2.378906 6.140625 -2.703125 6.203125 -3.015625 C 6.203125 -5.140625 6.203125 -7.25 6.203125 -9.34375 C 6.203125 -11.4375 6.203125 -13.519531 6.203125 -15.59375 C 6.203125 -18.625 6.203125 -21.644531 6.203125 -24.65625 C 6.203125 -27.664062 6.203125 -30.660156 6.203125 -33.640625 C 6.203125 -35.097656 6.1875 -36.25 6.15625 -37.09375 C 6.125 -37.945312 5.410156 -38.675781 4.015625 -39.28125 C 3.710938 -39.40625 3.238281 -39.554688 2.59375 -39.734375 C 1.957031 -39.921875 1.363281 -40.148438 0.8125 -40.421875 C 0.269531 -40.703125 0 -41.082031 0 -41.5625 C 0 -42.414062 0 -43.28125 0 -44.15625 C 0 -45.039062 0 -45.910156 0 -46.765625 C 0 -47.003906 0.015625 -47.242188 0.046875 -47.484375 C 0.078125 -47.734375 0.125 -47.976562 0.1875 -48.21875 C 0.488281 -48.882812 0.988281 -49.335938 1.6875 -49.578125 C 2.382812 -49.828125 3.113281 -50.085938 3.875 -50.359375 C 4.632812 -50.640625 5.226562 -51.113281 5.65625 -51.78125 C 6.195312 -52.625 6.40625 -53.546875 6.28125 -54.546875 C 6.164062 -55.554688 6.195312 -56.546875 6.375 -57.515625 C 6.5 -58.128906 6.609375 -58.722656 6.703125 -59.296875 C 6.796875 -59.867188 6.929688 -60.367188 7.109375 -60.796875 C 8.691406 -64.203125 10.894531 -66.875 13.71875 -68.8125 C 16.539062 -70.757812 19.65625 -71.734375 23.0625 -71.734375 C 24.21875 -71.734375 25.492188 -71.6875 26.890625 -71.59375 C 28.285156 -71.507812 29.472656 -71.070312 30.453125 -70.28125 C 31.234375 -69.613281 31.703125 -68.734375 31.859375 -67.640625 C 32.015625 -66.546875 31.984375 -65.421875 31.765625 -64.265625 C 31.554688 -63.109375 31.269531 -62.101562 30.90625 -61.25 C 30.78125 -61.007812 30.640625 -60.78125 30.484375 -60.5625 C 30.335938 -60.351562 30.144531 -60.160156 29.90625 -59.984375 C 29.476562 -59.734375 28.988281 -59.609375 28.4375 -59.609375 C 27.894531 -59.609375 27.347656 -59.640625 26.796875 -59.703125 C 25.828125 -59.828125 24.851562 -59.84375 23.875 -59.75 C 22.90625 -59.65625 22.023438 -59.304688 21.234375 -58.703125 C 20.503906 -58.210938 19.988281 -57.539062 19.6875 -56.6875 C 19.382812 -55.84375 19.320312 -54.992188 19.5 -54.140625 C 19.8125 -52.867188 20.46875 -51.957031 21.46875 -51.40625 C 22.46875 -50.863281 23.515625 -50.410156 24.609375 -50.046875 C 25.160156 -49.804688 25.859375 -49.6875 26.703125 -49.6875 C 27.015625 -49.6875 27.335938 -49.695312 27.671875 -49.71875 C 28.003906 -49.75 28.289062 -49.796875 28.53125 -49.859375 C 28.769531 -49.859375 28.976562 -49.859375 29.15625 -49.859375 C 29.34375 -49.859375 29.53125 -49.859375 29.71875 -49.859375 Z M 29.71875 -49.859375 "/></g></g></g></g><g fill="#f6f4f0" fill-opacity="1"><g transform="translate(32.323183, 128.433756)"><g><path d="M 51.140625 -23.15625 C 50.410156 -22.539062 49.332031 -22.128906 47.90625 -21.921875 C 46.476562 -21.710938 44.957031 -21.609375 43.34375 -21.609375 C 41.726562 -21.609375 40.222656 -21.632812 38.828125 -21.6875 C 37.429688 -21.75 36.367188 -21.78125 35.640625 -21.78125 C 32.484375 -21.71875 29.351562 -21.671875 26.25 -21.640625 C 23.15625 -21.617188 20.023438 -21.609375 16.859375 -21.609375 C 15.890625 -21.609375 15.265625 -21.300781 14.984375 -20.6875 C 14.710938 -20.082031 14.679688 -19.398438 14.890625 -18.640625 C 15.109375 -17.878906 15.398438 -17.226562 15.765625 -16.6875 C 17.046875 -15.039062 18.640625 -13.71875 20.546875 -12.71875 C 22.460938 -11.71875 24.457031 -11.09375 26.53125 -10.84375 C 28.832031 -10.601562 30.757812 -10.921875 32.3125 -11.796875 C 33.863281 -12.679688 35.613281 -13.609375 37.5625 -14.578125 C 38.46875 -15.066406 39.085938 -15.367188 39.421875 -15.484375 C 39.753906 -15.609375 40.316406 -15.335938 41.109375 -14.671875 C 41.960938 -14.003906 42.769531 -13.09375 43.53125 -11.9375 C 44.289062 -10.78125 45.035156 -9.78125 45.765625 -8.9375 C 46.554688 -7.90625 46.523438 -6.929688 45.671875 -6.015625 C 44.816406 -5.109375 43.507812 -4.273438 41.75 -3.515625 C 39.988281 -2.753906 38.070312 -2.097656 36 -1.546875 C 33.9375 -1.003906 32.066406 -0.578125 30.390625 -0.265625 C 28.722656 0.0351562 27.585938 0.1875 26.984375 0.1875 C 22.910156 0.1875 19.15625 -0.617188 15.71875 -2.234375 C 12.289062 -3.847656 9.359375 -6.035156 6.921875 -8.796875 C 4.492188 -11.554688 2.671875 -14.671875 1.453125 -18.140625 C 0.242188 -21.609375 -0.222656 -25.238281 0.046875 -29.03125 C 0.316406 -32.832031 1.488281 -36.523438 3.5625 -40.109375 C 5.132812 -42.898438 7.242188 -45.269531 9.890625 -47.21875 C 12.535156 -49.164062 15.453125 -50.609375 18.640625 -51.546875 C 21.828125 -52.492188 25.09375 -52.921875 28.4375 -52.828125 C 31.78125 -52.734375 34.957031 -52.0625 37.96875 -50.8125 C 40.976562 -49.570312 43.609375 -47.707031 45.859375 -45.21875 C 46.890625 -44.0625 47.875 -42.613281 48.8125 -40.875 C 49.757812 -39.144531 50.566406 -37.273438 51.234375 -35.265625 C 51.898438 -33.265625 52.304688 -31.304688 52.453125 -29.390625 C 52.609375 -27.484375 52.414062 -25.738281 51.875 -24.15625 C 51.75 -23.789062 51.503906 -23.457031 51.140625 -23.15625 Z M 37.375 -32.640625 C 37.550781 -33.054688 37.613281 -33.507812 37.5625 -34 C 37.5 -34.726562 37.160156 -35.425781 36.546875 -36.09375 C 34.910156 -38.40625 32.785156 -40.109375 30.171875 -41.203125 C 27.554688 -42.296875 24.882812 -42.234375 22.15625 -41.015625 C 20.9375 -40.472656 19.796875 -39.773438 18.734375 -38.921875 C 17.671875 -38.066406 16.679688 -37.15625 15.765625 -36.1875 C 15.523438 -35.945312 15.28125 -35.671875 15.03125 -35.359375 C 14.789062 -35.054688 14.613281 -34.722656 14.5 -34.359375 C 14.25 -33.628906 14.367188 -32.960938 14.859375 -32.359375 C 15.347656 -31.753906 15.957031 -31.453125 16.6875 -31.453125 L 35.28125 -31.453125 C 36.3125 -31.453125 37.007812 -31.847656 37.375 -32.640625 Z M 37.375 -32.640625 "/></g></g></g><g fill="#f6f4f0" fill-opacity="1"><g transform="translate(84.373219, 128.433756)"><g><path d="M 31.359375 -2.375 C 28.015625 -0.789062 24.640625 0 21.234375 0 C 19.296875 0 17.15625 -0.269531 14.8125 -0.8125 C 12.46875 -1.363281 10.1875 -2.0625 7.96875 -2.90625 C 5.757812 -3.757812 3.800781 -4.675781 2.09375 -5.65625 C 0.820312 -6.382812 0.15625 -7.128906 0.09375 -7.890625 C 0.03125 -8.648438 0.300781 -9.4375 0.90625 -10.25 C 1.519531 -11.070312 2.097656 -11.96875 2.640625 -12.9375 C 2.828125 -13.25 3.023438 -13.539062 3.234375 -13.8125 C 3.453125 -14.082031 3.679688 -14.3125 3.921875 -14.5 C 4.585938 -14.976562 5.285156 -15.125 6.015625 -14.9375 C 6.742188 -14.757812 7.457031 -14.457031 8.15625 -14.03125 C 8.851562 -13.613281 9.476562 -13.25 10.03125 -12.9375 C 11.914062 -11.90625 13.976562 -11.144531 16.21875 -10.65625 C 18.46875 -10.175781 20.65625 -10 22.78125 -10.125 C 24.363281 -10.238281 25.820312 -10.582031 27.15625 -11.15625 C 28.5 -11.738281 29.289062 -12.546875 29.53125 -13.578125 C 29.78125 -14.609375 29.050781 -15.828125 27.34375 -17.234375 C 25.09375 -18.992188 22.707031 -20.453125 20.1875 -21.609375 C 17.664062 -22.765625 15.066406 -23.765625 12.390625 -24.609375 C 9.898438 -25.398438 7.894531 -26.582031 6.375 -28.15625 C 4.863281 -29.738281 3.785156 -31.503906 3.140625 -33.453125 C 2.503906 -35.398438 2.304688 -37.285156 2.546875 -39.109375 C 2.859375 -41.046875 3.617188 -42.894531 4.828125 -44.65625 C 6.046875 -46.425781 7.566406 -47.976562 9.390625 -49.3125 C 11.210938 -50.65625 13.1875 -51.566406 15.3125 -52.046875 C 16.53125 -52.347656 17.710938 -52.578125 18.859375 -52.734375 C 20.015625 -52.890625 21.171875 -52.96875 22.328125 -52.96875 C 24.515625 -52.96875 26.671875 -52.707031 28.796875 -52.1875 C 30.929688 -51.664062 32.96875 -50.953125 34.90625 -50.046875 C 36.675781 -49.253906 37.9375 -48.507812 38.6875 -47.8125 C 39.445312 -47.113281 39.722656 -46.273438 39.515625 -45.296875 C 39.304688 -44.328125 38.59375 -42.960938 37.375 -41.203125 C 36.457031 -39.867188 35.421875 -39.125 34.265625 -38.96875 C 33.117188 -38.8125 31.875 -38.976562 30.53125 -39.46875 C 29.195312 -39.957031 27.847656 -40.550781 26.484375 -41.25 C 25.117188 -41.945312 23.78125 -42.535156 22.46875 -43.015625 C 21.164062 -43.503906 19.96875 -43.65625 18.875 -43.46875 C 17.78125 -43.289062 16.804688 -42.535156 15.953125 -41.203125 C 15.160156 -39.867188 14.929688 -38.695312 15.265625 -37.6875 C 15.597656 -36.6875 16.28125 -35.820312 17.3125 -35.09375 C 18.351562 -34.363281 19.554688 -33.753906 20.921875 -33.265625 C 22.285156 -32.785156 23.601562 -32.363281 24.875 -32 C 26.15625 -31.632812 27.191406 -31.300781 27.984375 -31 C 30.296875 -30.144531 32.546875 -29.109375 34.734375 -27.890625 C 36.921875 -26.679688 38.679688 -24.976562 40.015625 -22.78125 C 41.835938 -19.75 42.488281 -16.910156 41.96875 -14.265625 C 41.457031 -11.617188 40.226562 -9.273438 38.28125 -7.234375 C 36.34375 -5.203125 34.035156 -3.582031 31.359375 -2.375 Z M 31.359375 -2.375 "/></g></g></g><g fill="#f6f4f0" fill-opacity="1"><g transform="translate(126.031306, 128.433756)"><g><path d="M 14.765625 -2.375 C 11.421875 -4.3125 9.21875 -6.890625 8.15625 -10.109375 C 7.09375 -13.335938 6.59375 -16.773438 6.65625 -20.421875 C 6.71875 -22.546875 6.734375 -24.671875 6.703125 -26.796875 C 6.671875 -28.921875 6.65625 -31.019531 6.65625 -33.09375 C 6.65625 -34.550781 6.671875 -36.023438 6.703125 -37.515625 C 6.734375 -39.003906 6.171875 -40.320312 5.015625 -41.46875 C 4.410156 -42.144531 3.648438 -42.585938 2.734375 -42.796875 C 1.828125 -43.003906 1.160156 -43.566406 0.734375 -44.484375 C 0.546875 -44.910156 0.421875 -45.335938 0.359375 -45.765625 C 0.304688 -46.191406 0.25 -46.613281 0.1875 -47.03125 C 0.125 -48.007812 0.125 -48.96875 0.1875 -49.90625 C 0.25 -50.851562 0.644531 -51.691406 1.375 -52.421875 C 1.976562 -52.960938 2.6875 -53.304688 3.5 -53.453125 C 4.320312 -53.609375 5.007812 -54.019531 5.5625 -54.6875 C 6.59375 -55.90625 7.109375 -57.242188 7.109375 -58.703125 C 7.109375 -60.160156 7.046875 -61.554688 6.921875 -62.890625 C 6.804688 -63.929688 6.734375 -64.769531 6.703125 -65.40625 C 6.671875 -66.039062 7.140625 -66.632812 8.109375 -67.1875 C 8.835938 -67.601562 9.765625 -67.8125 10.890625 -67.8125 C 12.015625 -67.8125 13.140625 -67.75 14.265625 -67.625 C 15.390625 -67.507812 16.347656 -67.390625 17.140625 -67.265625 C 18.710938 -67.085938 19.5625 -66.492188 19.6875 -65.484375 C 19.8125 -64.484375 19.8125 -63.347656 19.6875 -62.078125 C 19.445312 -58.554688 20.085938 -55.941406 21.609375 -54.234375 C 22.335938 -53.441406 23.15625 -52.96875 24.0625 -52.8125 C 24.976562 -52.664062 25.90625 -52.625 26.84375 -52.6875 C 27.789062 -52.75 28.6875 -52.75 29.53125 -52.6875 C 30.382812 -52.625 31.113281 -52.289062 31.71875 -51.6875 C 32.382812 -51.019531 32.671875 -50 32.578125 -48.625 C 32.492188 -47.257812 32.390625 -46.148438 32.265625 -45.296875 C 32.148438 -44.148438 31.648438 -43.332031 30.765625 -42.84375 C 29.878906 -42.351562 28.84375 -41.988281 27.65625 -41.75 C 26.476562 -41.507812 25.328125 -41.21875 24.203125 -40.875 C 23.078125 -40.539062 22.210938 -39.984375 21.609375 -39.203125 C 20.929688 -38.347656 20.363281 -36.898438 19.90625 -34.859375 C 19.457031 -32.828125 19.203125 -30.550781 19.140625 -28.03125 C 19.078125 -25.507812 19.242188 -23.09375 19.640625 -20.78125 C 20.035156 -18.46875 20.75 -16.550781 21.78125 -15.03125 C 22.820312 -13.519531 24.191406 -12.765625 25.890625 -12.765625 C 26.617188 -12.765625 27.390625 -12.914062 28.203125 -13.21875 C 29.023438 -13.519531 29.832031 -13.773438 30.625 -13.984375 C 31.414062 -14.203125 32.113281 -14.160156 32.71875 -13.859375 C 33.570312 -13.554688 34.300781 -12.75 34.90625 -11.4375 C 35.519531 -10.132812 36.007812 -9.117188 36.375 -8.390625 C 36.738281 -7.722656 36.976562 -7.050781 37.09375 -6.375 C 37.15625 -5.46875 36.789062 -4.753906 36 -4.234375 C 35.21875 -3.722656 34.488281 -3.285156 33.8125 -2.921875 C 30.84375 -1.210938 27.6875 -0.25 24.34375 -0.03125 C 21 0.175781 17.804688 -0.601562 14.765625 -2.375 Z M 14.765625 -2.375 "/></g></g></g><g fill="#f6f4f0" fill-opacity="1"><g transform="translate(269.689847, 122.978183)"><g><path d="M 1 0 L 1.03125 -2.1875 C 1.050781 -3.90625 1.332031 -5.328125 1.875 -6.453125 C 2.414062 -7.578125 3.300781 -8.492188 4.53125 -9.203125 C 5.769531 -9.921875 7.425781 -10.5 9.5 -10.9375 L 13.8125 -11.8125 C 15.507812 -12.164062 16.722656 -12.660156 17.453125 -13.296875 C 18.179688 -13.929688 18.546875 -14.804688 18.546875 -15.921875 C 18.546875 -17.253906 17.972656 -18.34375 16.828125 -19.1875 C 15.691406 -20.03125 14.175781 -20.453125 12.28125 -20.453125 C 10.550781 -20.453125 8.90625 -20.003906 7.34375 -19.109375 C 5.789062 -18.210938 4.554688 -17.019531 3.640625 -15.53125 L 1.875 -17.234375 C 2.601562 -18.359375 3.515625 -19.335938 4.609375 -20.171875 C 5.710938 -21.003906 6.9375 -21.640625 8.28125 -22.078125 C 9.632812 -22.523438 11.039062 -22.75 12.5 -22.75 C 14.25 -22.75 15.769531 -22.457031 17.0625 -21.875 C 18.363281 -21.300781 19.375 -20.488281 20.09375 -19.4375 C 20.8125 -18.382812 21.171875 -17.160156 21.171875 -15.765625 C 21.171875 -14.066406 20.640625 -12.734375 19.578125 -11.765625 C 18.515625 -10.796875 16.757812 -10.050781 14.3125 -9.53125 L 10 -8.609375 C 8.445312 -8.273438 7.210938 -7.847656 6.296875 -7.328125 C 5.378906 -6.804688 4.722656 -6.144531 4.328125 -5.34375 C 3.929688 -4.539062 3.734375 -3.53125 3.734375 -2.3125 L 22.15625 -2.3125 L 22.15625 0 Z M 1 0 "/></g></g></g><g fill="#f6f4f0" fill-opacity="1"><g transform="translate(292.852844, 122.978183)"><g><path d="M 14.09375 0.78125 C 12.21875 0.78125 10.515625 0.488281 8.984375 -0.09375 C 7.460938 -0.675781 6.148438 -1.492188 5.046875 -2.546875 C 3.941406 -3.609375 3.09375 -4.851562 2.5 -6.28125 C 1.914062 -7.707031 1.625 -9.269531 1.625 -10.96875 C 1.625 -12.675781 1.914062 -14.242188 2.5 -15.671875 C 3.09375 -17.109375 3.941406 -18.359375 5.046875 -19.421875 C 6.148438 -20.484375 7.460938 -21.300781 8.984375 -21.875 C 10.515625 -22.457031 12.21875 -22.75 14.09375 -22.75 C 15.9375 -22.75 17.625 -22.457031 19.15625 -21.875 C 20.6875 -21.300781 22 -20.484375 23.09375 -19.421875 C 24.195312 -18.359375 25.046875 -17.109375 25.640625 -15.671875 C 26.234375 -14.242188 26.53125 -12.675781 26.53125 -10.96875 C 26.53125 -9.269531 26.234375 -7.707031 25.640625 -6.28125 C 25.046875 -4.851562 24.195312 -3.609375 23.09375 -2.546875 C 22 -1.492188 20.6875 -0.675781 19.15625 -0.09375 C 17.625 0.488281 15.9375 0.78125 14.09375 0.78125 Z M 14.09375 -1.28125 C 16.0625 -1.28125 17.785156 -1.691406 19.265625 -2.515625 C 20.742188 -3.347656 21.890625 -4.5 22.703125 -5.96875 C 23.523438 -7.4375 23.9375 -9.101562 23.9375 -10.96875 C 23.9375 -12.863281 23.523438 -14.535156 22.703125 -15.984375 C 21.890625 -17.441406 20.742188 -18.59375 19.265625 -19.4375 C 17.785156 -20.28125 16.0625 -20.703125 14.09375 -20.703125 C 12.113281 -20.703125 10.378906 -20.28125 8.890625 -19.4375 C 7.410156 -18.59375 6.265625 -17.441406 5.453125 -15.984375 C 4.640625 -14.535156 4.234375 -12.863281 4.234375 -10.96875 C 4.234375 -9.101562 4.640625 -7.4375 5.453125 -5.96875 C 6.265625 -4.5 7.410156 -3.347656 8.890625 -2.515625 C 10.378906 -1.691406 12.113281 -1.28125 14.09375 -1.28125 Z M 14.09375 -1.28125 "/></g></g></g><g fill="#f6f4f0" fill-opacity="1"><g transform="translate(321.035023, 122.978183)"><g><path d="M 1 0 L 1.03125 -2.1875 C 1.050781 -3.90625 1.332031 -5.328125 1.875 -6.453125 C 2.414062 -7.578125 3.300781 -8.492188 4.53125 -9.203125 C 5.769531 -9.921875 7.425781 -10.5 9.5 -10.9375 L 13.8125 -11.8125 C 15.507812 -12.164062 16.722656 -12.660156 17.453125 -13.296875 C 18.179688 -13.929688 18.546875 -14.804688 18.546875 -15.921875 C 18.546875 -17.253906 17.972656 -18.34375 16.828125 -19.1875 C 15.691406 -20.03125 14.175781 -20.453125 12.28125 -20.453125 C 10.550781 -20.453125 8.90625 -20.003906 7.34375 -19.109375 C 5.789062 -18.210938 4.554688 -17.019531 3.640625 -15.53125 L 1.875 -17.234375 C 2.601562 -18.359375 3.515625 -19.335938 4.609375 -20.171875 C 5.710938 -21.003906 6.9375 -21.640625 8.28125 -22.078125 C 9.632812 -22.523438 11.039062 -22.75 12.5 -22.75 C 14.25 -22.75 15.769531 -22.457031 17.0625 -21.875 C 18.363281 -21.300781 19.375 -20.488281 20.09375 -19.4375 C 20.8125 -18.382812 21.171875 -17.160156 21.171875 -15.765625 C 21.171875 -14.066406 20.640625 -12.734375 19.578125 -11.765625 C 18.515625 -10.796875 16.757812 -10.050781 14.3125 -9.53125 L 10 -8.609375 C 8.445312 -8.273438 7.210938 -7.847656 6.296875 -7.328125 C 5.378906 -6.804688 4.722656 -6.144531 4.328125 -5.34375 C 3.929688 -4.539062 3.734375 -3.53125 3.734375 -2.3125 L 22.15625 -2.3125 L 22.15625 0 Z M 1 0 "/></g></g></g><g fill="#f6f4f0" fill-opacity="1"><g transform="translate(344.198021, 122.978183)"><g><path d="M 12.8125 -22.75 C 15.65625 -22.75 17.96875 -22.109375 19.75 -20.828125 C 21.539062 -19.554688 22.863281 -17.835938 23.71875 -15.671875 L 21.578125 -14.25 C 20.992188 -16.15625 19.957031 -17.664062 18.46875 -18.78125 C 16.976562 -19.894531 15.0625 -20.453125 12.71875 -20.453125 C 10.082031 -20.453125 7.984375 -19.613281 6.421875 -17.9375 C 4.859375 -16.269531 4.054688 -13.832031 4.015625 -10.625 C 4.722656 -11.394531 5.492188 -12.035156 6.328125 -12.546875 C 7.160156 -13.054688 8.144531 -13.4375 9.28125 -13.6875 C 10.425781 -13.9375 11.800781 -14.0625 13.40625 -14.0625 C 15.582031 -14.0625 17.484375 -13.753906 19.109375 -13.140625 C 20.734375 -12.523438 21.988281 -11.664062 22.875 -10.5625 C 23.769531 -9.46875 24.21875 -8.203125 24.21875 -6.765625 C 24.21875 -5.285156 23.734375 -3.972656 22.765625 -2.828125 C 21.804688 -1.691406 20.484375 -0.800781 18.796875 -0.15625 C 17.109375 0.488281 15.175781 0.8125 13 0.8125 C 10.6875 0.8125 8.675781 0.460938 6.96875 -0.234375 C 5.269531 -0.929688 3.953125 -1.984375 3.015625 -3.390625 C 2.085938 -4.804688 1.625 -6.597656 1.625 -8.765625 C 1.625 -11.671875 1.992188 -14.164062 2.734375 -16.25 C 3.484375 -18.34375 4.679688 -19.945312 6.328125 -21.0625 C 7.972656 -22.1875 10.132812 -22.75 12.8125 -22.75 Z M 13.03125 -11.8125 C 11.34375 -11.8125 9.835938 -11.59375 8.515625 -11.15625 C 7.203125 -10.71875 6.160156 -10.117188 5.390625 -9.359375 C 4.617188 -8.609375 4.234375 -7.722656 4.234375 -6.703125 C 4.234375 -5.679688 4.613281 -4.78125 5.375 -4 C 6.132812 -3.226562 7.1875 -2.617188 8.53125 -2.171875 C 9.882812 -1.722656 11.425781 -1.5 13.15625 -1.5 C 14.789062 -1.5 16.25 -1.722656 17.53125 -2.171875 C 18.8125 -2.617188 19.816406 -3.234375 20.546875 -4.015625 C 21.273438 -4.804688 21.640625 -5.710938 21.640625 -6.734375 C 21.640625 -7.734375 21.269531 -8.613281 20.53125 -9.375 C 19.789062 -10.144531 18.769531 -10.742188 17.46875 -11.171875 C 16.175781 -11.597656 14.695312 -11.8125 13.03125 -11.8125 Z M 13.03125 -11.8125 "/></g></g></g></g></g></svg>