<svg xmlns="http://www.w3.org/2000/svg" xmlns:xlink="http://www.w3.org/1999/xlink" width="800" zoomAndPan="magnify" viewBox="0 0 600 187.499995" height="250" preserveAspectRatio="xMidYMid meet" version="1.0"><defs><g/><clipPath id="14d2a312be"><path d="M 0.796875 63 L 44 63 L 44 122 L 0.796875 122 Z M 0.796875 63 " clip-rule="nonzero"/></clipPath></defs><g clip-path="url(#14d2a312be)"><g fill="#222222" fill-opacity="1"><g transform="translate(-3.38782, 121.924858)"><g><path d="M 34.3125 -2.59375 C 30.65625 -0.863281 26.960938 0 23.234375 0 C 21.109375 0 18.765625 -0.296875 16.203125 -0.890625 C 13.640625 -1.492188 11.144531 -2.257812 8.71875 -3.1875 C 6.300781 -4.125 4.160156 -5.125 2.296875 -6.1875 C 0.898438 -6.976562 0.164062 -7.789062 0.09375 -8.625 C 0.03125 -9.457031 0.332031 -10.320312 1 -11.21875 C 1.664062 -12.113281 2.296875 -13.09375 2.890625 -14.15625 C 3.085938 -14.488281 3.300781 -14.804688 3.53125 -15.109375 C 3.769531 -15.410156 4.019531 -15.660156 4.28125 -15.859375 C 5.019531 -16.390625 5.785156 -16.554688 6.578125 -16.359375 C 7.378906 -16.160156 8.160156 -15.828125 8.921875 -15.359375 C 9.691406 -14.890625 10.375 -14.488281 10.96875 -14.15625 C 13.03125 -13.03125 15.289062 -12.203125 17.75 -11.671875 C 20.207031 -11.140625 22.601562 -10.941406 24.9375 -11.078125 C 26.664062 -11.203125 28.257812 -11.582031 29.71875 -12.21875 C 31.1875 -12.851562 32.050781 -13.734375 32.3125 -14.859375 C 32.582031 -15.992188 31.785156 -17.320312 29.921875 -18.84375 C 27.460938 -20.769531 24.851562 -22.363281 22.09375 -23.625 C 19.332031 -24.894531 16.488281 -25.992188 13.5625 -26.921875 C 10.832031 -27.785156 8.632812 -29.082031 6.96875 -30.8125 C 5.3125 -32.539062 4.132812 -34.46875 3.4375 -36.59375 C 2.738281 -38.726562 2.523438 -40.789062 2.796875 -42.78125 C 3.128906 -44.914062 3.957031 -46.945312 5.28125 -48.875 C 6.613281 -50.800781 8.273438 -52.492188 10.265625 -53.953125 C 12.265625 -55.421875 14.425781 -56.421875 16.75 -56.953125 C 18.082031 -57.285156 19.378906 -57.535156 20.640625 -57.703125 C 21.910156 -57.867188 23.175781 -57.953125 24.4375 -57.953125 C 26.832031 -57.953125 29.191406 -57.664062 31.515625 -57.09375 C 33.835938 -56.53125 36.066406 -55.75 38.203125 -54.75 C 40.128906 -53.882812 41.503906 -53.066406 42.328125 -52.296875 C 43.160156 -51.535156 43.460938 -50.625 43.234375 -49.5625 C 43.003906 -48.5 42.222656 -47.003906 40.890625 -45.078125 C 39.890625 -43.617188 38.757812 -42.804688 37.5 -42.640625 C 36.238281 -42.472656 34.875 -42.65625 33.40625 -43.1875 C 31.945312 -43.71875 30.46875 -44.363281 28.96875 -45.125 C 27.476562 -45.894531 26.015625 -46.546875 24.578125 -47.078125 C 23.148438 -47.609375 21.835938 -47.773438 20.640625 -47.578125 C 19.441406 -47.378906 18.378906 -46.546875 17.453125 -45.078125 C 16.585938 -43.617188 16.335938 -42.335938 16.703125 -41.234375 C 17.066406 -40.140625 17.8125 -39.191406 18.9375 -38.390625 C 20.070312 -37.597656 21.390625 -36.9375 22.890625 -36.40625 C 24.390625 -35.875 25.835938 -35.40625 27.234375 -35 C 28.628906 -34.601562 29.757812 -34.238281 30.625 -33.90625 C 33.144531 -32.976562 35.601562 -31.847656 38 -30.515625 C 40.394531 -29.191406 42.320312 -27.332031 43.78125 -24.9375 C 45.78125 -21.613281 46.492188 -18.503906 45.921875 -15.609375 C 45.359375 -12.710938 44.015625 -10.148438 41.890625 -7.921875 C 39.765625 -5.703125 37.238281 -3.925781 34.3125 -2.59375 Z M 34.3125 -2.59375 "/></g></g></g></g><g fill="#222222" fill-opacity="1"><g transform="translate(42.886652, 121.924858)"><g><path d="M 48.765625 -2.5 C 48.234375 -1.832031 47.40625 -1.460938 46.28125 -1.390625 C 45.21875 -1.390625 44.1875 -1.601562 43.1875 -2.03125 C 42.1875 -2.46875 41.203125 -2.898438 40.234375 -3.328125 C 39.273438 -3.765625 38.226562 -3.984375 37.09375 -3.984375 C 36.363281 -3.984375 35.632812 -3.929688 34.90625 -3.828125 C 34.175781 -3.734375 33.507812 -3.617188 32.90625 -3.484375 L 32.40625 -3.390625 C 30.476562 -3.054688 28.597656 -2.625 26.765625 -2.09375 C 24.941406 -1.5625 23.234375 -1.03125 21.640625 -0.5 C 20.910156 -0.300781 20.160156 -0.132812 19.390625 0 C 18.628906 0.132812 17.847656 0.203125 17.046875 0.203125 C 12.203125 0.203125 8.113281 -1.722656 4.78125 -5.578125 C 1 -9.898438 -0.492188 -15.222656 0.296875 -21.546875 C 0.628906 -24.066406 1.507812 -26.320312 2.9375 -28.3125 C 4.375 -30.3125 6.1875 -31.84375 8.375 -32.90625 C 9.507812 -33.4375 10.707031 -33.816406 11.96875 -34.046875 C 13.226562 -34.285156 14.523438 -34.503906 15.859375 -34.703125 C 16.191406 -34.703125 16.488281 -34.71875 16.75 -34.75 C 17.019531 -34.789062 17.285156 -34.84375 17.546875 -34.90625 L 30.625 -36.703125 C 32.351562 -36.960938 33.429688 -37.472656 33.859375 -38.234375 C 34.296875 -39.003906 34.546875 -39.625 34.609375 -40.09375 C 34.742188 -41.21875 34.394531 -42.242188 33.5625 -43.171875 C 32.726562 -44.109375 31.75 -44.742188 30.625 -45.078125 C 28.5625 -45.878906 26.429688 -46.28125 24.234375 -46.28125 L 23.9375 -46.28125 C 21.875 -46.207031 19.910156 -45.90625 18.046875 -45.375 C 16.191406 -44.84375 14.398438 -44.210938 12.671875 -43.484375 C 12.140625 -43.210938 11.503906 -43.078125 10.765625 -43.078125 C 9.304688 -43.078125 7.859375 -43.5625 6.421875 -44.53125 C 4.992188 -45.5 3.984375 -46.644531 3.390625 -47.96875 C 3.117188 -48.5 3 -48.945312 3.03125 -49.3125 C 3.070312 -49.675781 3.125 -49.960938 3.1875 -50.171875 C 3.59375 -51.035156 4.375 -51.816406 5.53125 -52.515625 C 6.695312 -53.210938 7.925781 -53.804688 9.21875 -54.296875 C 10.519531 -54.796875 11.601562 -55.179688 12.46875 -55.453125 C 17.25 -56.984375 22.066406 -57.75 26.921875 -57.75 C 27.390625 -57.75 27.851562 -57.75 28.3125 -57.75 C 28.78125 -57.75 29.25 -57.710938 29.71875 -57.640625 C 32.050781 -57.515625 34.628906 -57.066406 37.453125 -56.296875 C 40.273438 -55.535156 42.6875 -54.09375 44.6875 -51.96875 C 47.007812 -49.4375 48.40625 -46.90625 48.875 -44.375 C 49.40625 -41.519531 49.585938 -38.546875 49.421875 -35.453125 C 49.253906 -32.359375 49.203125 -29.347656 49.265625 -26.421875 C 49.265625 -23.429688 49.265625 -20.421875 49.265625 -17.390625 C 49.265625 -14.367188 49.300781 -11.398438 49.375 -8.484375 C 49.375 -7.484375 49.421875 -6.414062 49.515625 -5.28125 C 49.617188 -4.15625 49.367188 -3.226562 48.765625 -2.5 Z M 34.3125 -19.640625 C 34.84375 -20.710938 35.007812 -21.613281 34.8125 -22.34375 C 34.613281 -23.070312 34.410156 -23.570312 34.203125 -23.84375 C 33.941406 -24.238281 33.523438 -24.617188 32.953125 -24.984375 C 32.390625 -25.347656 31.613281 -25.5625 30.625 -25.625 L 29.828125 -25.734375 C 29.222656 -25.796875 28.601562 -25.828125 27.96875 -25.828125 C 27.34375 -25.828125 26.664062 -25.828125 25.9375 -25.828125 C 24.800781 -25.828125 23.4375 -25.710938 21.84375 -25.484375 C 20.25 -25.253906 18.71875 -24.640625 17.25 -23.640625 C 16.257812 -22.835938 15.628906 -22.003906 15.359375 -21.140625 C 15.085938 -20.410156 15.054688 -19.476562 15.265625 -18.34375 C 15.722656 -16.289062 16.617188 -14.695312 17.953125 -13.5625 C 19.285156 -12.4375 20.878906 -11.875 22.734375 -11.875 C 25.066406 -11.875 27.363281 -12.632812 29.625 -14.15625 C 31.882812 -15.6875 33.445312 -17.515625 34.3125 -19.640625 Z M 34.3125 -19.640625 "/></g></g></g><g fill="#222222" fill-opacity="1"><g transform="translate(92.651681, 121.924858)"><g><path d="M 50.96875 -0.5 C 49.238281 -0.5625 47.488281 -0.578125 45.71875 -0.546875 C 43.957031 -0.515625 42.179688 -0.5 40.390625 -0.5 C 39.992188 -0.5 39.675781 -1.195312 39.4375 -2.59375 C 39.207031 -3.988281 39.054688 -5.816406 38.984375 -8.078125 C 38.921875 -10.335938 38.890625 -12.78125 38.890625 -15.40625 C 38.890625 -18.03125 38.921875 -20.570312 38.984375 -23.03125 C 39.054688 -25.5 39.109375 -27.628906 39.140625 -29.421875 C 39.179688 -31.210938 39.203125 -32.375 39.203125 -32.90625 C 39.128906 -36.632812 38.539062 -39.460938 37.4375 -41.390625 C 36.34375 -43.316406 34.984375 -44.644531 33.359375 -45.375 C 31.734375 -46.101562 30.125 -46.46875 28.53125 -46.46875 L 28.328125 -46.46875 C 24.535156 -46.46875 21.457031 -45.1875 19.09375 -42.625 C 16.738281 -40.070312 15.492188 -36.734375 15.359375 -32.609375 C 15.296875 -29.953125 15.265625 -27.289062 15.265625 -24.625 C 15.265625 -21.96875 15.265625 -19.3125 15.265625 -16.65625 C 15.328125 -14.59375 15.503906 -12.3125 15.796875 -9.8125 C 16.097656 -7.320312 16.050781 -5.046875 15.65625 -2.984375 C 15.394531 -1.460938 14.78125 -0.648438 13.8125 -0.546875 C 12.84375 -0.453125 11.765625 -0.367188 10.578125 -0.296875 C 9.773438 -0.234375 8.722656 -0.148438 7.421875 -0.046875 C 6.128906 0.046875 4.867188 -0.00390625 3.640625 -0.203125 C 2.410156 -0.398438 1.492188 -0.898438 0.890625 -1.703125 C 0.160156 -2.765625 -0.101562 -4.039062 0.09375 -5.53125 C 0.300781 -7.03125 0.4375 -8.34375 0.5 -9.46875 C 0.757812 -13.125 0.957031 -16.847656 1.09375 -20.640625 C 1.289062 -27.828125 1.09375 -34.976562 0.5 -42.09375 C 0.363281 -43.488281 0.257812 -45.113281 0.1875 -46.96875 C 0.125 -48.832031 0.273438 -50.613281 0.640625 -52.3125 C 1.015625 -54.007812 1.75 -55.335938 2.84375 -56.296875 C 3.9375 -57.265625 5.582031 -57.546875 7.78125 -57.140625 C 9.570312 -56.816406 11.332031 -56.40625 13.0625 -55.90625 C 14.789062 -55.40625 16.550781 -54.988281 18.34375 -54.65625 C 18.476562 -54.65625 18.628906 -54.65625 18.796875 -54.65625 C 18.960938 -54.65625 19.082031 -54.65625 19.15625 -54.65625 C 20.414062 -54.65625 21.675781 -54.90625 22.9375 -55.40625 C 24.195312 -55.90625 25.492188 -56.421875 26.828125 -56.953125 C 28.160156 -57.484375 29.488281 -57.78125 30.8125 -57.84375 C 34.675781 -58.175781 38.332031 -57.507812 41.78125 -55.84375 C 44.78125 -54.445312 47.09375 -52.617188 48.71875 -50.359375 C 50.34375 -48.097656 51.519531 -45.601562 52.25 -42.875 C 52.988281 -40.15625 53.457031 -37.332031 53.65625 -34.40625 C 53.851562 -31.476562 54.019531 -28.585938 54.15625 -25.734375 C 54.15625 -25.128906 54.21875 -23.894531 54.34375 -22.03125 C 54.476562 -20.175781 54.5625 -18.035156 54.59375 -15.609375 C 54.632812 -13.179688 54.585938 -10.820312 54.453125 -8.53125 C 54.316406 -6.238281 54 -4.328125 53.5 -2.796875 C 53.007812 -1.265625 52.265625 -0.5 51.265625 -0.5 C 51.191406 -0.5 51.140625 -0.5 51.109375 -0.5 C 51.078125 -0.5 51.03125 -0.5 50.96875 -0.5 Z M 50.96875 -0.5 "/></g></g></g><g fill="#222222" fill-opacity="1"><g transform="translate(147.502943, 121.924858)"><g><path d="M 16.15625 -2.59375 C 12.5 -4.71875 10.085938 -7.539062 8.921875 -11.0625 C 7.765625 -14.59375 7.21875 -18.351562 7.28125 -22.34375 C 7.34375 -24.664062 7.359375 -26.988281 7.328125 -29.3125 C 7.296875 -31.644531 7.28125 -33.941406 7.28125 -36.203125 C 7.28125 -37.796875 7.296875 -39.40625 7.328125 -41.03125 C 7.359375 -42.664062 6.742188 -44.113281 5.484375 -45.375 C 4.816406 -46.101562 3.984375 -46.582031 2.984375 -46.8125 C 1.992188 -47.050781 1.265625 -47.671875 0.796875 -48.671875 C 0.597656 -49.140625 0.460938 -49.601562 0.390625 -50.0625 C 0.328125 -50.53125 0.265625 -51 0.203125 -51.46875 C 0.128906 -52.53125 0.125 -53.578125 0.1875 -54.609375 C 0.257812 -55.640625 0.695312 -56.550781 1.5 -57.34375 C 2.164062 -57.945312 2.945312 -58.332031 3.84375 -58.5 C 4.738281 -58.664062 5.484375 -59.113281 6.078125 -59.84375 C 7.210938 -61.164062 7.78125 -62.625 7.78125 -64.21875 C 7.78125 -65.820312 7.710938 -67.351562 7.578125 -68.8125 C 7.441406 -69.945312 7.359375 -70.863281 7.328125 -71.5625 C 7.296875 -72.257812 7.8125 -72.90625 8.875 -73.5 C 9.675781 -73.96875 10.691406 -74.203125 11.921875 -74.203125 C 13.148438 -74.203125 14.378906 -74.132812 15.609375 -74 C 16.835938 -73.863281 17.882812 -73.734375 18.75 -73.609375 C 20.476562 -73.410156 21.40625 -72.757812 21.53125 -71.65625 C 21.664062 -70.5625 21.671875 -69.316406 21.546875 -67.921875 C 21.273438 -64.066406 21.972656 -61.207031 23.640625 -59.34375 C 24.429688 -58.476562 25.328125 -57.960938 26.328125 -57.796875 C 27.328125 -57.628906 28.34375 -57.578125 29.375 -57.640625 C 30.40625 -57.710938 31.382812 -57.710938 32.3125 -57.640625 C 33.238281 -57.578125 34.035156 -57.210938 34.703125 -56.546875 C 35.429688 -55.816406 35.742188 -54.703125 35.640625 -53.203125 C 35.546875 -51.710938 35.4375 -50.5 35.3125 -49.5625 C 35.175781 -48.300781 34.625 -47.40625 33.65625 -46.875 C 32.695312 -46.34375 31.566406 -45.941406 30.265625 -45.671875 C 28.972656 -45.410156 27.710938 -45.097656 26.484375 -44.734375 C 25.253906 -44.367188 24.304688 -43.753906 23.640625 -42.890625 C 22.910156 -41.953125 22.296875 -40.367188 21.796875 -38.140625 C 21.296875 -35.921875 21.007812 -33.429688 20.9375 -30.671875 C 20.875 -27.910156 21.054688 -25.265625 21.484375 -22.734375 C 21.921875 -20.210938 22.703125 -18.117188 23.828125 -16.453125 C 24.960938 -14.796875 26.460938 -13.96875 28.328125 -13.96875 C 29.117188 -13.96875 29.960938 -14.128906 30.859375 -14.453125 C 31.765625 -14.785156 32.648438 -15.066406 33.515625 -15.296875 C 34.378906 -15.535156 35.140625 -15.488281 35.796875 -15.15625 C 36.734375 -14.820312 37.535156 -13.941406 38.203125 -12.515625 C 38.867188 -11.085938 39.398438 -9.972656 39.796875 -9.171875 C 40.191406 -8.441406 40.457031 -7.710938 40.59375 -6.984375 C 40.65625 -5.984375 40.253906 -5.203125 39.390625 -4.640625 C 38.523438 -4.078125 37.726562 -3.59375 37 -3.1875 C 33.738281 -1.332031 30.28125 -0.285156 26.625 -0.046875 C 22.96875 0.179688 19.476562 -0.664062 16.15625 -2.59375 Z M 16.15625 -2.59375 "/></g></g></g><g fill="#222222" fill-opacity="1"><g transform="translate(188.391983, 121.924858)"><g><path d="M 3.796875 -62.828125 C 2.328125 -63.765625 1.257812 -65.078125 0.59375 -66.765625 C -0.0703125 -68.460938 -0.101562 -70.3125 0.5 -72.3125 C 1.625 -76.226562 4.285156 -78.253906 8.484375 -78.390625 L 8.671875 -78.390625 C 10.734375 -78.390625 12.460938 -77.835938 13.859375 -76.734375 C 15.253906 -75.640625 16.1875 -74.128906 16.65625 -72.203125 C 17.25 -69.816406 17.015625 -67.625 15.953125 -65.625 C 14.890625 -63.632812 13.097656 -62.335938 10.578125 -61.734375 C 9.304688 -61.472656 8.085938 -61.441406 6.921875 -61.640625 C 5.765625 -61.835938 4.722656 -62.234375 3.796875 -62.828125 Z M 2.390625 -52.859375 C 3.328125 -53.453125 4.660156 -53.71875 6.390625 -53.65625 C 7.378906 -53.65625 8.472656 -53.6875 9.671875 -53.75 C 10.867188 -53.820312 11.984375 -53.707031 13.015625 -53.40625 C 14.046875 -53.101562 14.726562 -52.421875 15.0625 -51.359375 C 15.65625 -49.703125 15.851562 -47.691406 15.65625 -45.328125 C 15.457031 -42.960938 15.359375 -40.921875 15.359375 -39.203125 C 15.421875 -35.140625 15.453125 -31.113281 15.453125 -27.125 C 15.453125 -23.132812 15.488281 -19.113281 15.5625 -15.0625 C 15.5625 -14.394531 15.644531 -13.28125 15.8125 -11.71875 C 15.976562 -10.15625 16.078125 -8.472656 16.109375 -6.671875 C 16.140625 -4.878906 15.953125 -3.351562 15.546875 -2.09375 C 15.148438 -0.832031 14.359375 -0.164062 13.171875 -0.09375 C 11.640625 -0.03125 10.039062 0.015625 8.375 0.046875 C 6.71875 0.078125 5.125 -0.00390625 3.59375 -0.203125 C 2.53125 -0.335938 1.796875 -0.914062 1.390625 -1.9375 C 0.992188 -2.96875 0.78125 -4.210938 0.75 -5.671875 C 0.71875 -7.140625 0.765625 -8.539062 0.890625 -9.875 C 1.023438 -11.207031 1.09375 -12.238281 1.09375 -12.96875 C 1.03125 -15.6875 0.976562 -18.425781 0.9375 -21.1875 C 0.90625 -23.945312 0.890625 -26.691406 0.890625 -29.421875 C 0.828125 -31.742188 0.796875 -34.066406 0.796875 -36.390625 C 0.796875 -38.722656 0.765625 -41.019531 0.703125 -43.28125 C 0.703125 -45.207031 0.664062 -47.066406 0.59375 -48.859375 C 0.53125 -50.660156 1.128906 -51.992188 2.390625 -52.859375 Z M 2.390625 -52.859375 "/></g></g></g><g fill="#222222" fill-opacity="1"><g transform="translate(205.644955, 121.924858)"><g><path d="M 48.765625 -2.5 C 48.234375 -1.832031 47.40625 -1.460938 46.28125 -1.390625 C 45.21875 -1.390625 44.1875 -1.601562 43.1875 -2.03125 C 42.1875 -2.46875 41.203125 -2.898438 40.234375 -3.328125 C 39.273438 -3.765625 38.226562 -3.984375 37.09375 -3.984375 C 36.363281 -3.984375 35.632812 -3.929688 34.90625 -3.828125 C 34.175781 -3.734375 33.507812 -3.617188 32.90625 -3.484375 L 32.40625 -3.390625 C 30.476562 -3.054688 28.597656 -2.625 26.765625 -2.09375 C 24.941406 -1.5625 23.234375 -1.03125 21.640625 -0.5 C 20.910156 -0.300781 20.160156 -0.132812 19.390625 0 C 18.628906 0.132812 17.847656 0.203125 17.046875 0.203125 C 12.203125 0.203125 8.113281 -1.722656 4.78125 -5.578125 C 1 -9.898438 -0.492188 -15.222656 0.296875 -21.546875 C 0.628906 -24.066406 1.507812 -26.320312 2.9375 -28.3125 C 4.375 -30.3125 6.1875 -31.84375 8.375 -32.90625 C 9.507812 -33.4375 10.707031 -33.816406 11.96875 -34.046875 C 13.226562 -34.285156 14.523438 -34.503906 15.859375 -34.703125 C 16.191406 -34.703125 16.488281 -34.71875 16.75 -34.75 C 17.019531 -34.789062 17.285156 -34.84375 17.546875 -34.90625 L 30.625 -36.703125 C 32.351562 -36.960938 33.429688 -37.472656 33.859375 -38.234375 C 34.296875 -39.003906 34.546875 -39.625 34.609375 -40.09375 C 34.742188 -41.21875 34.394531 -42.242188 33.5625 -43.171875 C 32.726562 -44.109375 31.75 -44.742188 30.625 -45.078125 C 28.5625 -45.878906 26.429688 -46.28125 24.234375 -46.28125 L 23.9375 -46.28125 C 21.875 -46.207031 19.910156 -45.90625 18.046875 -45.375 C 16.191406 -44.84375 14.398438 -44.210938 12.671875 -43.484375 C 12.140625 -43.210938 11.503906 -43.078125 10.765625 -43.078125 C 9.304688 -43.078125 7.859375 -43.5625 6.421875 -44.53125 C 4.992188 -45.5 3.984375 -46.644531 3.390625 -47.96875 C 3.117188 -48.5 3 -48.945312 3.03125 -49.3125 C 3.070312 -49.675781 3.125 -49.960938 3.1875 -50.171875 C 3.59375 -51.035156 4.375 -51.816406 5.53125 -52.515625 C 6.695312 -53.210938 7.925781 -53.804688 9.21875 -54.296875 C 10.519531 -54.796875 11.601562 -55.179688 12.46875 -55.453125 C 17.25 -56.984375 22.066406 -57.75 26.921875 -57.75 C 27.390625 -57.75 27.851562 -57.75 28.3125 -57.75 C 28.78125 -57.75 29.25 -57.710938 29.71875 -57.640625 C 32.050781 -57.515625 34.628906 -57.066406 37.453125 -56.296875 C 40.273438 -55.535156 42.6875 -54.09375 44.6875 -51.96875 C 47.007812 -49.4375 48.40625 -46.90625 48.875 -44.375 C 49.40625 -41.519531 49.585938 -38.546875 49.421875 -35.453125 C 49.253906 -32.359375 49.203125 -29.347656 49.265625 -26.421875 C 49.265625 -23.429688 49.265625 -20.421875 49.265625 -17.390625 C 49.265625 -14.367188 49.300781 -11.398438 49.375 -8.484375 C 49.375 -7.484375 49.421875 -6.414062 49.515625 -5.28125 C 49.617188 -4.15625 49.367188 -3.226562 48.765625 -2.5 Z M 34.3125 -19.640625 C 34.84375 -20.710938 35.007812 -21.613281 34.8125 -22.34375 C 34.613281 -23.070312 34.410156 -23.570312 34.203125 -23.84375 C 33.941406 -24.238281 33.523438 -24.617188 32.953125 -24.984375 C 32.390625 -25.347656 31.613281 -25.5625 30.625 -25.625 L 29.828125 -25.734375 C 29.222656 -25.796875 28.601562 -25.828125 27.96875 -25.828125 C 27.34375 -25.828125 26.664062 -25.828125 25.9375 -25.828125 C 24.800781 -25.828125 23.4375 -25.710938 21.84375 -25.484375 C 20.25 -25.253906 18.71875 -24.640625 17.25 -23.640625 C 16.257812 -22.835938 15.628906 -22.003906 15.359375 -21.140625 C 15.085938 -20.410156 15.054688 -19.476562 15.265625 -18.34375 C 15.722656 -16.289062 16.617188 -14.695312 17.953125 -13.5625 C 19.285156 -12.4375 20.878906 -11.875 22.734375 -11.875 C 25.066406 -11.875 27.363281 -12.632812 29.625 -14.15625 C 31.882812 -15.6875 33.445312 -17.515625 34.3125 -19.640625 Z M 34.3125 -19.640625 "/></g></g></g><g fill="#222222" fill-opacity="1"><g transform="translate(255.409995, 121.924858)"><g><path d="M 57.640625 -42.984375 C 57.640625 -38.460938 57.671875 -33.90625 57.734375 -29.3125 C 57.804688 -24.726562 57.773438 -20.175781 57.640625 -15.65625 C 57.578125 -13.132812 57.546875 -10.507812 57.546875 -7.78125 C 57.546875 -5.050781 57.34375 -2.359375 56.9375 0.296875 C 56.539062 2.953125 55.710938 5.445312 54.453125 7.78125 C 52.796875 10.832031 50.601562 13.375 47.875 15.40625 C 45.144531 17.4375 42.132812 18.945312 38.84375 19.9375 C 35.550781 20.9375 32.210938 21.4375 28.828125 21.4375 C 28.554688 21.4375 28.285156 21.4375 28.015625 21.4375 C 27.753906 21.4375 27.492188 21.4375 27.234375 21.4375 C 25.035156 21.3125 22.851562 21.128906 20.6875 20.890625 C 18.53125 20.660156 16.390625 20.210938 14.265625 19.546875 C 13.398438 19.285156 12.367188 18.9375 11.171875 18.5 C 9.972656 18.070312 8.84375 17.554688 7.78125 16.953125 C 6.71875 16.359375 5.96875 15.609375 5.53125 14.703125 C 5.101562 13.804688 5.1875 12.726562 5.78125 11.46875 C 6.25 10.539062 6.710938 9.59375 7.171875 8.625 C 7.640625 7.664062 8.109375 6.71875 8.578125 5.78125 C 9.109375 4.78125 9.804688 4.265625 10.671875 4.234375 C 11.535156 4.203125 12.5 4.4375 13.5625 4.9375 C 14.625 5.4375 15.65625 5.984375 16.65625 6.578125 C 17.65625 7.179688 18.488281 7.582031 19.15625 7.78125 C 20.550781 8.25 21.992188 8.613281 23.484375 8.875 C 24.984375 9.144531 26.460938 9.28125 27.921875 9.28125 C 31.578125 9.28125 34.832031 8.332031 37.6875 6.4375 C 40.550781 4.539062 42.617188 1.863281 43.890625 -1.59375 C 44.015625 -1.925781 44.109375 -2.238281 44.171875 -2.53125 C 44.242188 -2.832031 44.25 -3.117188 44.1875 -3.390625 C 44.113281 -4.523438 43.675781 -5.191406 42.875 -5.390625 C 42.082031 -5.585938 41.171875 -5.550781 40.140625 -5.28125 C 39.109375 -5.019531 38.109375 -4.671875 37.140625 -4.234375 C 36.179688 -3.804688 35.4375 -3.523438 34.90625 -3.390625 C 33.375 -2.921875 31.8125 -2.535156 30.21875 -2.234375 C 28.625 -1.941406 27.03125 -1.796875 25.4375 -1.796875 C 21.25 -1.796875 17.523438 -2.859375 14.265625 -4.984375 C 11.597656 -6.710938 9.234375 -8.671875 7.171875 -10.859375 C 5.117188 -13.054688 3.625 -15.1875 2.6875 -17.25 C 0.09375 -23.300781 -0.640625 -29.316406 0.484375 -35.296875 C 1.617188 -41.285156 4.515625 -46.507812 9.171875 -50.96875 C 13.828125 -55.488281 19.179688 -57.75 25.234375 -57.75 C 29.816406 -57.75 34.367188 -56.484375 38.890625 -53.953125 C 39.222656 -53.691406 39.65625 -53.5625 40.1875 -53.5625 C 40.988281 -53.5625 41.65625 -53.890625 42.1875 -54.546875 C 42.519531 -54.953125 43.332031 -55.367188 44.625 -55.796875 C 45.925781 -56.234375 47.457031 -56.617188 49.21875 -56.953125 C 50.976562 -57.285156 52.65625 -57.453125 54.25 -57.453125 C 55.25 -57.453125 55.945312 -57.382812 56.34375 -57.25 C 56.75 -57.113281 57.082031 -56.582031 57.34375 -55.65625 C 57.675781 -54.59375 57.773438 -53.34375 57.640625 -51.90625 C 57.515625 -50.476562 57.484375 -49.203125 57.546875 -48.078125 C 57.546875 -47.210938 57.546875 -46.363281 57.546875 -45.53125 C 57.546875 -44.695312 57.578125 -43.847656 57.640625 -42.984375 Z M 40 -18.953125 C 42.71875 -22.210938 44.078125 -26.035156 44.078125 -30.421875 C 44.078125 -33.347656 43.425781 -35.972656 42.125 -38.296875 C 40.832031 -40.617188 39.101562 -42.445312 36.9375 -43.78125 C 34.78125 -45.113281 32.34375 -45.78125 29.625 -45.78125 C 27.757812 -45.707031 25.960938 -45.304688 24.234375 -44.578125 C 22.503906 -43.847656 20.972656 -42.785156 19.640625 -41.390625 C 16.515625 -38.203125 15.019531 -34.242188 15.15625 -29.515625 C 15.226562 -26.796875 15.960938 -24.238281 17.359375 -21.84375 C 18.753906 -19.445312 20.53125 -17.515625 22.6875 -16.046875 C 24.851562 -14.585938 27.164062 -13.859375 29.625 -13.859375 C 29.625 -13.859375 29.640625 -13.859375 29.671875 -13.859375 C 29.703125 -13.859375 29.71875 -13.859375 29.71875 -13.859375 C 33.707031 -13.859375 37.132812 -15.554688 40 -18.953125 Z M 40 -18.953125 "/></g></g></g><g fill="#222222" fill-opacity="1"><g transform="translate(313.45263, 121.924858)"><g><path d="M 0.09375 -28.921875 C 0.03125 -32.648438 0.765625 -36.359375 2.296875 -40.046875 C 3.828125 -43.734375 5.953125 -46.972656 8.671875 -49.765625 C 11.265625 -52.421875 14.222656 -54.445312 17.546875 -55.84375 C 20.878906 -57.25 24.304688 -57.953125 27.828125 -57.953125 C 28.160156 -57.953125 28.507812 -57.953125 28.875 -57.953125 C 29.238281 -57.953125 29.585938 -57.953125 29.921875 -57.953125 C 29.921875 -57.953125 29.9375 -57.953125 29.96875 -57.953125 C 30 -57.953125 30.015625 -57.953125 30.015625 -57.953125 C 35.804688 -57.953125 40.910156 -56.753906 45.328125 -54.359375 C 49.753906 -51.960938 53.226562 -48.632812 55.75 -44.375 C 58.28125 -40.125 59.546875 -35.207031 59.546875 -29.625 C 59.546875 -20.914062 56.816406 -13.832031 51.359375 -8.375 C 48.703125 -5.71875 45.523438 -3.671875 41.828125 -2.234375 C 38.140625 -0.804688 34.140625 -0.09375 29.828125 -0.09375 C 25.703125 -0.09375 21.859375 -0.84375 18.296875 -2.34375 C 14.742188 -3.84375 11.617188 -5.90625 8.921875 -8.53125 C 6.234375 -11.15625 4.109375 -14.210938 2.546875 -17.703125 C 0.984375 -21.191406 0.164062 -24.929688 0.09375 -28.921875 Z M 29.515625 -46.078125 C 27.191406 -46.078125 24.929688 -45.328125 22.734375 -43.828125 C 20.546875 -42.335938 18.734375 -40.410156 17.296875 -38.046875 C 15.867188 -35.691406 15.125 -33.21875 15.0625 -30.625 C 14.988281 -27.757812 15.453125 -24.992188 16.453125 -22.328125 C 17.453125 -19.671875 18.984375 -17.445312 21.046875 -15.65625 C 23.109375 -13.863281 25.664062 -12.800781 28.71875 -12.46875 C 32.113281 -12.132812 34.972656 -12.664062 37.296875 -14.0625 C 39.628906 -15.457031 41.425781 -17.367188 42.6875 -19.796875 C 43.945312 -22.222656 44.644531 -24.878906 44.78125 -27.765625 C 44.914062 -30.660156 44.484375 -33.4375 43.484375 -36.09375 C 42.484375 -38.757812 40.882812 -41.003906 38.6875 -42.828125 C 36.5 -44.660156 33.707031 -45.742188 30.3125 -46.078125 C 30.1875 -46.078125 30.054688 -46.078125 29.921875 -46.078125 C 29.785156 -46.078125 29.648438 -46.078125 29.515625 -46.078125 Z M 29.515625 -46.078125 "/></g></g></g><g fill="#222222" fill-opacity="1"><g transform="translate(373.190671, 121.924858)"><g/></g></g><g fill="#222222" fill-opacity="1"><g transform="translate(413.281886, 121.924858)"><g><path d="M 32.515625 -54.546875 C 33.710938 -54.546875 34.476562 -54.046875 34.8125 -53.046875 C 35.144531 -52.054688 35.273438 -50.925781 35.203125 -49.65625 C 35.140625 -48.394531 35.039062 -47.398438 34.90625 -46.671875 C 34.769531 -45.347656 34.21875 -44.484375 33.25 -44.078125 C 32.289062 -43.679688 31.195312 -43.53125 29.96875 -43.625 C 28.738281 -43.726562 27.625 -43.816406 26.625 -43.890625 C 24.300781 -44.148438 22.738281 -43.914062 21.9375 -43.1875 C 21.144531 -42.457031 20.75 -41.359375 20.75 -39.890625 C 20.75 -38.429688 20.75 -36.769531 20.75 -34.90625 C 20.8125 -33.238281 20.84375 -31.59375 20.84375 -29.96875 C 20.84375 -28.34375 20.84375 -26.695312 20.84375 -25.03125 C 20.90625 -21.238281 20.953125 -17.445312 20.984375 -13.65625 C 21.023438 -9.875 21.078125 -6.117188 21.140625 -2.390625 C 21.210938 -1.191406 20.816406 -0.457031 19.953125 -0.1875 C 19.085938 0.0703125 18.101562 0.132812 17 0 C 15.90625 -0.132812 14.957031 -0.203125 14.15625 -0.203125 C 13.5625 -0.203125 12.75 -0.117188 11.71875 0.046875 C 10.6875 0.210938 9.722656 0.226562 8.828125 0.09375 C 7.929688 -0.03125 7.316406 -0.460938 6.984375 -1.203125 C 6.847656 -1.535156 6.765625 -1.882812 6.734375 -2.25 C 6.703125 -2.613281 6.71875 -2.960938 6.78125 -3.296875 C 6.78125 -5.617188 6.78125 -7.925781 6.78125 -10.21875 C 6.78125 -12.507812 6.78125 -14.785156 6.78125 -17.046875 C 6.78125 -20.378906 6.78125 -23.691406 6.78125 -26.984375 C 6.78125 -30.273438 6.78125 -33.546875 6.78125 -36.796875 C 6.78125 -38.398438 6.765625 -39.664062 6.734375 -40.59375 C 6.703125 -41.519531 5.921875 -42.316406 4.390625 -42.984375 C 4.054688 -43.117188 3.539062 -43.285156 2.84375 -43.484375 C 2.144531 -43.679688 1.492188 -43.929688 0.890625 -44.234375 C 0.296875 -44.535156 0 -44.953125 0 -45.484375 C 0 -46.410156 0 -47.351562 0 -48.3125 C 0 -49.28125 0 -50.226562 0 -51.15625 C 0 -51.425781 0.015625 -51.691406 0.046875 -51.953125 C 0.078125 -52.222656 0.128906 -52.492188 0.203125 -52.765625 C 0.535156 -53.492188 1.082031 -53.988281 1.84375 -54.25 C 2.601562 -54.519531 3.398438 -54.800781 4.234375 -55.09375 C 5.066406 -55.394531 5.71875 -55.914062 6.1875 -56.65625 C 6.78125 -57.582031 7.007812 -58.59375 6.875 -59.6875 C 6.75 -60.789062 6.785156 -61.875 6.984375 -62.9375 C 7.117188 -63.601562 7.234375 -64.25 7.328125 -64.875 C 7.429688 -65.507812 7.582031 -66.054688 7.78125 -66.515625 C 9.507812 -70.242188 11.914062 -73.171875 15 -75.296875 C 18.09375 -77.421875 21.503906 -78.484375 25.234375 -78.484375 C 26.492188 -78.484375 27.890625 -78.429688 29.421875 -78.328125 C 30.953125 -78.234375 32.25 -77.753906 33.3125 -76.890625 C 34.175781 -76.160156 34.691406 -75.195312 34.859375 -74 C 35.023438 -72.800781 34.988281 -71.570312 34.75 -70.3125 C 34.519531 -69.050781 34.207031 -67.953125 33.8125 -67.015625 C 33.675781 -66.753906 33.523438 -66.503906 33.359375 -66.265625 C 33.191406 -66.035156 32.976562 -65.820312 32.71875 -65.625 C 32.25 -65.351562 31.710938 -65.21875 31.109375 -65.21875 C 30.515625 -65.21875 29.921875 -65.253906 29.328125 -65.328125 C 28.253906 -65.460938 27.1875 -65.476562 26.125 -65.375 C 25.0625 -65.269531 24.097656 -64.890625 23.234375 -64.234375 C 22.441406 -63.703125 21.878906 -62.96875 21.546875 -62.03125 C 21.210938 -61.101562 21.144531 -60.171875 21.34375 -59.234375 C 21.675781 -57.835938 22.390625 -56.84375 23.484375 -56.25 C 24.585938 -55.65625 25.734375 -55.15625 26.921875 -54.75 C 27.523438 -54.488281 28.289062 -54.359375 29.21875 -54.359375 C 29.550781 -54.359375 29.898438 -54.375 30.265625 -54.40625 C 30.628906 -54.4375 30.945312 -54.484375 31.21875 -54.546875 C 31.476562 -54.546875 31.707031 -54.546875 31.90625 -54.546875 C 32.113281 -54.546875 32.316406 -54.546875 32.515625 -54.546875 Z M 32.515625 -54.546875 "/></g></g></g><g fill="#222222" fill-opacity="1"><g transform="translate(448.785473, 121.924858)"><g><path d="M 55.953125 -25.328125 C 55.148438 -24.660156 53.96875 -24.210938 52.40625 -23.984375 C 50.84375 -23.753906 49.179688 -23.640625 47.421875 -23.640625 C 45.660156 -23.640625 44.015625 -23.671875 42.484375 -23.734375 C 40.953125 -23.804688 39.789062 -23.84375 39 -23.84375 C 35.539062 -23.769531 32.113281 -23.71875 28.71875 -23.6875 C 25.332031 -23.65625 21.910156 -23.640625 18.453125 -23.640625 C 17.390625 -23.640625 16.707031 -23.304688 16.40625 -22.640625 C 16.101562 -21.972656 16.066406 -21.222656 16.296875 -20.390625 C 16.535156 -19.566406 16.851562 -18.851562 17.25 -18.25 C 18.644531 -16.457031 20.390625 -15.007812 22.484375 -13.90625 C 24.578125 -12.8125 26.753906 -12.132812 29.015625 -11.875 C 31.546875 -11.601562 33.660156 -11.945312 35.359375 -12.90625 C 37.054688 -13.875 38.96875 -14.890625 41.09375 -15.953125 C 42.09375 -16.484375 42.773438 -16.816406 43.140625 -16.953125 C 43.503906 -17.085938 44.117188 -16.789062 44.984375 -16.0625 C 45.910156 -15.320312 46.789062 -14.320312 47.625 -13.0625 C 48.457031 -11.800781 49.269531 -10.707031 50.0625 -9.78125 C 50.925781 -8.644531 50.894531 -7.578125 49.96875 -6.578125 C 49.039062 -5.585938 47.609375 -4.675781 45.671875 -3.84375 C 43.742188 -3.007812 41.648438 -2.289062 39.390625 -1.6875 C 37.128906 -1.09375 35.082031 -0.628906 33.25 -0.296875 C 31.425781 0.0351562 30.179688 0.203125 29.515625 0.203125 C 25.066406 0.203125 20.960938 -0.675781 17.203125 -2.4375 C 13.441406 -4.207031 10.234375 -6.601562 7.578125 -9.625 C 4.921875 -12.644531 2.925781 -16.050781 1.59375 -19.84375 C 0.257812 -23.632812 -0.253906 -27.609375 0.046875 -31.765625 C 0.347656 -35.921875 1.628906 -39.960938 3.890625 -43.890625 C 5.617188 -46.941406 7.925781 -49.53125 10.8125 -51.65625 C 13.707031 -53.789062 16.898438 -55.375 20.390625 -56.40625 C 23.878906 -57.4375 27.453125 -57.898438 31.109375 -57.796875 C 34.773438 -57.691406 38.25 -56.957031 41.53125 -55.59375 C 44.820312 -54.238281 47.703125 -52.195312 50.171875 -49.46875 C 51.296875 -48.207031 52.375 -46.628906 53.40625 -44.734375 C 54.4375 -42.835938 55.316406 -40.789062 56.046875 -38.59375 C 56.773438 -36.40625 57.222656 -34.257812 57.390625 -32.15625 C 57.554688 -30.0625 57.34375 -28.148438 56.75 -26.421875 C 56.613281 -26.023438 56.347656 -25.660156 55.953125 -25.328125 Z M 40.890625 -35.703125 C 41.085938 -36.171875 41.15625 -36.671875 41.09375 -37.203125 C 41.019531 -37.992188 40.65625 -38.757812 40 -39.5 C 38.195312 -42.019531 35.863281 -43.878906 33 -45.078125 C 30.144531 -46.273438 27.222656 -46.207031 24.234375 -44.875 C 22.898438 -44.28125 21.648438 -43.515625 20.484375 -42.578125 C 19.328125 -41.648438 18.25 -40.65625 17.25 -39.59375 C 16.988281 -39.332031 16.722656 -39.035156 16.453125 -38.703125 C 16.191406 -38.367188 15.992188 -38 15.859375 -37.59375 C 15.585938 -36.800781 15.71875 -36.070312 16.25 -35.40625 C 16.78125 -34.738281 17.445312 -34.40625 18.25 -34.40625 L 38.59375 -34.40625 C 39.726562 -34.40625 40.492188 -34.835938 40.890625 -35.703125 Z M 40.890625 -35.703125 "/></g></g></g><g fill="#222222" fill-opacity="1"><g transform="translate(506.429177, 121.924858)"><g><path d="M 34.3125 -2.59375 C 30.65625 -0.863281 26.960938 0 23.234375 0 C 21.109375 0 18.765625 -0.296875 16.203125 -0.890625 C 13.640625 -1.492188 11.144531 -2.257812 8.71875 -3.1875 C 6.300781 -4.125 4.160156 -5.125 2.296875 -6.1875 C 0.898438 -6.976562 0.164062 -7.789062 0.09375 -8.625 C 0.03125 -9.457031 0.332031 -10.320312 1 -11.21875 C 1.664062 -12.113281 2.296875 -13.09375 2.890625 -14.15625 C 3.085938 -14.488281 3.300781 -14.804688 3.53125 -15.109375 C 3.769531 -15.410156 4.019531 -15.660156 4.28125 -15.859375 C 5.019531 -16.390625 5.785156 -16.554688 6.578125 -16.359375 C 7.378906 -16.160156 8.160156 -15.828125 8.921875 -15.359375 C 9.691406 -14.890625 10.375 -14.488281 10.96875 -14.15625 C 13.03125 -13.03125 15.289062 -12.203125 17.75 -11.671875 C 20.207031 -11.140625 22.601562 -10.941406 24.9375 -11.078125 C 26.664062 -11.203125 28.257812 -11.582031 29.71875 -12.21875 C 31.1875 -12.851562 32.050781 -13.734375 32.3125 -14.859375 C 32.582031 -15.992188 31.785156 -17.320312 29.921875 -18.84375 C 27.460938 -20.769531 24.851562 -22.363281 22.09375 -23.625 C 19.332031 -24.894531 16.488281 -25.992188 13.5625 -26.921875 C 10.832031 -27.785156 8.632812 -29.082031 6.96875 -30.8125 C 5.3125 -32.539062 4.132812 -34.46875 3.4375 -36.59375 C 2.738281 -38.726562 2.523438 -40.789062 2.796875 -42.78125 C 3.128906 -44.914062 3.957031 -46.945312 5.28125 -48.875 C 6.613281 -50.800781 8.273438 -52.492188 10.265625 -53.953125 C 12.265625 -55.421875 14.425781 -56.421875 16.75 -56.953125 C 18.082031 -57.285156 19.378906 -57.535156 20.640625 -57.703125 C 21.910156 -57.867188 23.175781 -57.953125 24.4375 -57.953125 C 26.832031 -57.953125 29.191406 -57.664062 31.515625 -57.09375 C 33.835938 -56.53125 36.066406 -55.75 38.203125 -54.75 C 40.128906 -53.882812 41.503906 -53.066406 42.328125 -52.296875 C 43.160156 -51.535156 43.460938 -50.625 43.234375 -49.5625 C 43.003906 -48.5 42.222656 -47.003906 40.890625 -45.078125 C 39.890625 -43.617188 38.757812 -42.804688 37.5 -42.640625 C 36.238281 -42.472656 34.875 -42.65625 33.40625 -43.1875 C 31.945312 -43.71875 30.46875 -44.363281 28.96875 -45.125 C 27.476562 -45.894531 26.015625 -46.546875 24.578125 -47.078125 C 23.148438 -47.609375 21.835938 -47.773438 20.640625 -47.578125 C 19.441406 -47.378906 18.378906 -46.546875 17.453125 -45.078125 C 16.585938 -43.617188 16.335938 -42.335938 16.703125 -41.234375 C 17.066406 -40.140625 17.8125 -39.191406 18.9375 -38.390625 C 20.070312 -37.597656 21.390625 -36.9375 22.890625 -36.40625 C 24.390625 -35.875 25.835938 -35.40625 27.234375 -35 C 28.628906 -34.601562 29.757812 -34.238281 30.625 -33.90625 C 33.144531 -32.976562 35.601562 -31.847656 38 -30.515625 C 40.394531 -29.191406 42.320312 -27.332031 43.78125 -24.9375 C 45.78125 -21.613281 46.492188 -18.503906 45.921875 -15.609375 C 45.359375 -12.710938 44.015625 -10.148438 41.890625 -7.921875 C 39.765625 -5.703125 37.238281 -3.925781 34.3125 -2.59375 Z M 34.3125 -2.59375 "/></g></g></g><g fill="#222222" fill-opacity="1"><g transform="translate(552.703648, 121.924858)"><g><path d="M 16.15625 -2.59375 C 12.5 -4.71875 10.085938 -7.539062 8.921875 -11.0625 C 7.765625 -14.59375 7.21875 -18.351562 7.28125 -22.34375 C 7.34375 -24.664062 7.359375 -26.988281 7.328125 -29.3125 C 7.296875 -31.644531 7.28125 -33.941406 7.28125 -36.203125 C 7.28125 -37.796875 7.296875 -39.40625 7.328125 -41.03125 C 7.359375 -42.664062 6.742188 -44.113281 5.484375 -45.375 C 4.816406 -46.101562 3.984375 -46.582031 2.984375 -46.8125 C 1.992188 -47.050781 1.265625 -47.671875 0.796875 -48.671875 C 0.597656 -49.140625 0.460938 -49.601562 0.390625 -50.0625 C 0.328125 -50.53125 0.265625 -51 0.203125 -51.46875 C 0.128906 -52.53125 0.125 -53.578125 0.1875 -54.609375 C 0.257812 -55.640625 0.695312 -56.550781 1.5 -57.34375 C 2.164062 -57.945312 2.945312 -58.332031 3.84375 -58.5 C 4.738281 -58.664062 5.484375 -59.113281 6.078125 -59.84375 C 7.210938 -61.164062 7.78125 -62.625 7.78125 -64.21875 C 7.78125 -65.820312 7.710938 -67.351562 7.578125 -68.8125 C 7.441406 -69.945312 7.359375 -70.863281 7.328125 -71.5625 C 7.296875 -72.257812 7.8125 -72.90625 8.875 -73.5 C 9.675781 -73.96875 10.691406 -74.203125 11.921875 -74.203125 C 13.148438 -74.203125 14.378906 -74.132812 15.609375 -74 C 16.835938 -73.863281 17.882812 -73.734375 18.75 -73.609375 C 20.476562 -73.410156 21.40625 -72.757812 21.53125 -71.65625 C 21.664062 -70.5625 21.671875 -69.316406 21.546875 -67.921875 C 21.273438 -64.066406 21.972656 -61.207031 23.640625 -59.34375 C 24.429688 -58.476562 25.328125 -57.960938 26.328125 -57.796875 C 27.328125 -57.628906 28.34375 -57.578125 29.375 -57.640625 C 30.40625 -57.710938 31.382812 -57.710938 32.3125 -57.640625 C 33.238281 -57.578125 34.035156 -57.210938 34.703125 -56.546875 C 35.429688 -55.816406 35.742188 -54.703125 35.640625 -53.203125 C 35.546875 -51.710938 35.4375 -50.5 35.3125 -49.5625 C 35.175781 -48.300781 34.625 -47.40625 33.65625 -46.875 C 32.695312 -46.34375 31.566406 -45.941406 30.265625 -45.671875 C 28.972656 -45.410156 27.710938 -45.097656 26.484375 -44.734375 C 25.253906 -44.367188 24.304688 -43.753906 23.640625 -42.890625 C 22.910156 -41.953125 22.296875 -40.367188 21.796875 -38.140625 C 21.296875 -35.921875 21.007812 -33.429688 20.9375 -30.671875 C 20.875 -27.910156 21.054688 -25.265625 21.484375 -22.734375 C 21.921875 -20.210938 22.703125 -18.117188 23.828125 -16.453125 C 24.960938 -14.796875 26.460938 -13.96875 28.328125 -13.96875 C 29.117188 -13.96875 29.960938 -14.128906 30.859375 -14.453125 C 31.765625 -14.785156 32.648438 -15.066406 33.515625 -15.296875 C 34.378906 -15.535156 35.140625 -15.488281 35.796875 -15.15625 C 36.734375 -14.820312 37.535156 -13.941406 38.203125 -12.515625 C 38.867188 -11.085938 39.398438 -9.972656 39.796875 -9.171875 C 40.191406 -8.441406 40.457031 -7.710938 40.59375 -6.984375 C 40.65625 -5.984375 40.253906 -5.203125 39.390625 -4.640625 C 38.523438 -4.078125 37.726562 -3.59375 37 -3.1875 C 33.738281 -1.332031 30.28125 -0.285156 26.625 -0.046875 C 22.96875 0.179688 19.476562 -0.664062 16.15625 -2.59375 Z M 16.15625 -2.59375 "/></g></g></g></svg>